<?xml version="1.0" encoding="UTF-8"?>
<svg viewBox="218.946 323.904 200.655 86.907" xmlns="http://www.w3.org/2000/svg">
<path transform="matrix(-.14309 .98971 -.98971 -.14309 432.17 194.63)" d="m210 161m-21.016 0a21.016 21.016 0 1 0 42.032 0 21.016 21.016 0 1 0 -42.032 0zm21.016 0m-20.016 0a20.016 20.016 0 0 1 40.032 0 20.016 20.016 0 0 1 -40.032 0z" style=""/>
<path transform="matrix(-.14309 .98971 -.98971 -.14309 432.25 194.53)" d="m210 161m-7.61 0a7.61 7.61 0 1 0 15.22 0 7.61 7.61 0 1 0 -15.22 0zm7.61 0m-6.812 0a6.812 6.812 0 0 1 13.624 0 6.812 6.812 0 0 1 -13.624 0z" style=""/>
<path d="m255.59 352.43c0.873-1.253 1.783-2.319 2.733-3.199 0.942-0.88 1.688-1.434 2.237-1.659 0.556-0.225 1.097-0.338 1.625-0.338 0.535 0 1.037 0.287 1.509 0.863 2.701-10.054 5.283-15.08 7.744-15.08 0.823 0 1.383 0.384 1.678 1.151 0.14 0.372 0.211 0.699 0.211 0.981 0 0.791-0.211 1.794-0.633 3.013s-1.076 2.556-1.963 4.011c-0.886 1.456-2.159 3.25-3.819 5.382-1.654 2.133-2.567 3.323-2.744 3.571-0.633 2.336-1.125 4.592-1.477 6.77-0.351 2.189-0.527 3.82-0.527 4.892 0 1.071 0.116 1.924 0.348 2.555 0.119 0.407 0.298 0.649 0.538 0.728 0.232 0.08 0.433 0.034 0.601-0.135 0.169-0.169 0.296-0.322 0.38-0.457 0.092-0.124 0.201-0.242 0.327-0.356 0.127-0.101 0.222-0.123 0.285-0.067 0.056 0.067 0.046 0.242-0.031 0.524-0.155 0.317-0.303 0.588-0.444 0.813-0.316 0.338-0.685 0.508-1.107 0.508s-0.704-0.012-0.845-0.034c-0.942-0.259-1.413-1.366-1.413-3.318 0-1.895 0.158-3.65 0.474-5.263 0.43-2.212 0.823-4.045 1.182-5.501-3.152 5.878-5.388 8.818-6.711 8.818-0.316 0-0.657-0.152-1.023-0.457-0.359-0.293-0.668-0.716-0.929-1.269-0.253-0.554-0.379-1.146-0.379-1.777 0-0.632 0.087-1.236 0.263-1.811 0.394-1.321 1.031-2.607 1.91-3.859zm7.46-1.964l0.412-1.607c-0.24-0.192-0.655-0.288-1.246-0.288-0.59 0-1.353 0.384-2.289 1.151-0.936 0.778-1.815 1.755-2.638 2.928-0.689 1.037-1.298 2.212-1.825 3.52-0.521 1.308-0.781 2.268-0.781 2.877 0 1.163 0.208 1.744 0.622 1.744 0.415 0 1.045-0.537 1.889-1.608 2.187-2.877 4.139-5.784 5.856-8.717zm9.064-13.557c0.26-0.756 0.39-1.392 0.39-1.912 0-0.53-0.144-0.795-0.433-0.795-0.288 0-0.667 0.287-1.139 0.863-2.166 2.652-4.126 7.091-5.877 13.32 1.28-1.332 2.62-3.103 4.02-5.315s2.413-4.265 3.039-6.161zm10.297 10.376c1.062 0 1.593 0.824 1.593 2.471 0 0.846-0.148 1.54-0.443 2.081-0.493 1.173-1.291 2.195-2.395 3.064-1.105 0.868-2.04 1.349-2.807 1.438-0.274 0.034-0.422-0.089-0.443-0.372-0.021-0.135 3e-3 -0.215 0.074-0.237 0.07-0.034 0.126-0.051 0.169-0.051 0.45-0.067 1.03-0.418 1.741-1.049 1.315-1.139 2.279-2.307 2.891-3.504 0.26-0.563 0.39-1.111 0.39-1.641 0-0.52-0.158-0.779-0.475-0.779-0.26 0-0.604 0.175-1.034 0.525-0.928 0.699-1.902 1.907-2.923 3.622-1.026 1.726-1.698 3.407-2.015 5.043-0.098 0.508-0.148 1.011-0.148 1.507 0 0.486 0.13 0.948 0.391 1.388 0.253 0.44 0.647 0.66 1.182 0.66 0.59 0 1.269-0.249 2.036-0.745 2.223-1.456 3.936-3.656 5.139-6.601 0.119-0.249 0.228-0.293 0.327-0.135 0.077 0.068 0.116 0.147 0.116 0.237s-0.029 0.203-0.085 0.338c-0.591 1.579-1.34 2.984-2.247 4.215-1.752 2.403-3.458 3.605-5.118 3.605-1.413 0-2.405-0.682-2.975-2.048-0.219-0.53-0.327-1.18-0.327-1.947 0-0.756 0.126-1.653 0.38-2.691 0.492-1.806 1.548-3.656 3.165-5.551 1.611-1.896 2.891-2.843 3.841-2.843zm23.087-10.376c0.232-0.699 0.349-1.235 0.349-1.607 0-0.666-0.166-0.999-0.496-0.999-0.282 0-0.626 0.254-1.034 0.762-1.576 1.951-3.103 5.048-4.58 9.291-1.181 3.407-2.05 6.33-2.606 8.768 1.358-1.49 2.881-3.91 4.569-7.261 1.681-3.351 2.947-6.335 3.798-8.954zm-8.81 18.11c-0.232 1.072-0.359 1.789-0.38 2.15-0.021 0.36-0.032 0.851-0.032 1.472 0 0.609 0.099 1.168 0.296 1.676 0.337 0.858 0.9 0.919 1.688 0.186 0.591-0.496 1.337-1.417 2.237-2.759 0.907-1.342 1.607-2.567 2.1-3.673 0.042-0.101 0.102-0.152 0.179-0.152 0.176 0 0.225 0.208 0.148 0.626-0.296 0.847-0.841 1.935-1.636 3.267-0.802 1.32-1.526 2.369-2.173 3.148-0.654 0.778-1.305 1.168-1.952 1.168-1.499 0-2.248-1.173-2.248-3.521v-0.27c0.077-2.213 0.778-5.557 2.1-10.037 1.322-4.468 2.514-7.836 3.577-10.104l0.918-1.862c0.211-0.406 0.524-0.909 0.939-1.506 0.788-1.207 1.601-1.811 2.437-1.811 0.837 0 1.404 0.411 1.699 1.235 0.098 0.283 0.148 0.694 0.148 1.236 0 0.541-0.148 1.298-0.443 2.268-2.026 5.665-5.226 11.419-9.602 17.263zm18.569-7.074c0.493 0 0.789 0.253 0.887 0.761 0.036 0.283 0.01 0.559-0.074 0.83-0.091 0.27-0.154 0.485-0.19 0.643-0.042 0.157-0.074 0.282-0.095 0.372-0.098 0.317-0.196 0.621-0.296 0.914-1.118 3.6-1.709 5.89-1.772 6.872-0.021 0.282-0.032 0.643-0.032 1.083s0.081 0.8 0.243 1.083c0.274 0.508 0.669 0.542 1.182 0.101 0.513-0.44 1.228-1.325 2.142-2.657 0.914-1.32 1.656-2.611 2.226-3.876 0.078-0.157 0.166-0.198 0.264-0.118 0.099 0.079 0.147 0.157 0.147 0.237 0 0.079-0.016 0.164-0.052 0.254-0.296 0.858-0.827 1.946-1.594 3.266-1.266 2.179-2.321 3.521-3.165 4.028-0.492 0.283-0.907 0.424-1.245 0.424-0.787 0-1.308-0.598-1.562-1.794-0.042-0.226-0.063-0.496-0.063-0.813 0-1.105 0.317-2.776 0.95-5.01-0.099 0.339-0.482 1.129-1.151 2.37-0.175 0.316-0.312 0.316-0.411 0-0.021-0.068-0.032-0.158-0.032-0.271s0.039-0.249 0.116-0.406c0.965-1.918 1.725-3.543 2.28-4.875-0.043-0.157-0.025-0.36 0.052-0.609 0.395-1.772 0.739-2.708 1.034-2.809h0.211zm2.332-6.297l-0.232 1.524c0 0.282-0.13 0.739-0.39 1.371-0.254 0.631-0.45 0.947-0.591 0.947-0.844 0-1.266-0.333-1.266-0.998 0-0.124 0.422-0.711 1.266-1.76l0.506-0.61c0.317-0.44 0.514-0.66 0.591-0.66 0.078 0 0.116 0.063 0.116 0.186zm19.159 9.005l0.148-0.948c0-0.632-0.148-0.948-0.443-0.948-0.809 0-1.914 1.01-3.313 3.03-1.4 2.019-2.287 4.056-2.659 6.109-0.099 0.542-0.148 1.028-0.148 1.456s0.059 0.784 0.18 1.066c0.238 0.564 0.604 0.847 1.097 0.847 0.492 0 1.023-0.107 1.593-0.322 1.259-0.575 2.307-1.393 3.144-2.454 0.837-1.05 1.72-2.522 2.649-4.418 0.077-0.157 0.169-0.208 0.274-0.152 0.112 0.068 0.169 0.157 0.169 0.271 0 0.101-0.032 0.266-0.095 0.491-0.943 2.053-1.931 3.718-2.965 4.993-1.034 1.286-2.23 2.115-3.587 2.488-0.395 0.101-0.76 0.152-1.098 0.152-0.964 0-1.698-0.378-2.205-1.134-0.5-0.767-0.749-1.608-0.749-2.522s0.137-1.907 0.411-2.979c0.492-1.806 1.547-3.656 3.166-5.551 1.61-1.896 2.891-2.843 3.841-2.843 0.232 0 0.456 0.05 0.675 0.152 0.555 0.316 0.833 0.817 0.833 1.506 0 0.474-0.109 1.011-0.327 1.608-0.218 0.609-0.38 0.824-0.485 0.643-0.113-0.169-0.148-0.35-0.106-0.541zm14.961-2.708c0.492 0 0.787 0.253 0.887 0.761 0.034 0.283 0.01 0.559-0.074 0.83-0.092 0.27-0.155 0.485-0.19 0.643-0.042 0.157-0.074 0.282-0.095 0.372-0.099 0.317-0.197 0.621-0.296 0.914-1.118 3.6-1.709 5.89-1.772 6.872-0.021 0.282-0.032 0.643-0.032 1.083s0.08 0.8 0.243 1.083c0.274 0.508 0.668 0.542 1.182 0.101 0.512-0.44 1.227-1.325 2.142-2.657 0.913-1.32 1.656-2.611 2.226-3.876 0.077-0.157 0.164-0.198 0.264-0.118 0.098 0.079 0.147 0.157 0.147 0.237 0 0.079-0.018 0.164-0.052 0.254-0.296 0.858-0.828 1.946-1.594 3.266-1.266 2.179-2.321 3.521-3.165 4.028-0.493 0.283-0.908 0.424-1.245 0.424-0.788 0-1.309-0.598-1.562-1.794-0.042-0.226-0.063-0.496-0.063-0.813 0-1.105 0.316-2.776 0.95-5.01-0.1 0.339-0.483 1.129-1.151 2.37-0.176 0.316-0.313 0.316-0.411 0-0.021-0.068-0.032-0.158-0.032-0.271s0.038-0.249 0.116-0.406c0.964-1.918 1.723-3.543 2.279-4.875-0.042-0.157-0.025-0.36 0.053-0.609 0.394-1.772 0.739-2.708 1.034-2.809h0.211zm2.332-6.297l-0.232 1.524c0 0.282-0.131 0.739-0.39 1.371-0.254 0.631-0.451 0.947-0.591 0.947-0.844 0-1.266-0.333-1.266-0.998 0-0.124 0.422-0.711 1.266-1.76l0.506-0.61c0.317-0.44 0.513-0.66 0.591-0.66 0.077 0 0.116 0.063 0.116 0.186zm17.861 14.217c0.351-1.172 0.527-2.076 0.527-2.708 0-0.631-0.045-1.128-0.137-1.489-0.084-0.36-0.042-0.665 0.127-0.914 0.161-0.259 0.372-0.355 0.633-0.288 0.393 0.158 0.591 0.869 0.591 2.133s-0.465 2.923-1.393 4.976c0.021 0.846-0.32 1.975-0.56 1.185-0.393 0.665-0.777 1.281-1.15 1.844-0.767 1.038-1.625 1.558-2.574 1.558-0.528 0-0.971-0.204-1.33-0.61-0.689-0.665-1.034-1.85-1.034-3.554 0-1.862 0.394-3.757 1.182-5.687 0.457-1.139 0.989-2.132 1.593-2.979 0.971-1.365 1.889-2.047 2.754-2.047 0.219 0 0.425 0.05 0.623 0.152 0.591 0.316 0.886 0.914 0.886 1.794 0 0.723-0.119 1.083-0.359 1.083-0.098-0.056-0.147-0.293-0.147-0.711 0-0.563-0.198-0.846-0.591-0.846-0.689 0-1.576 1.01-2.659 3.03-1.084 2.019-1.734 4.056-1.952 6.109-0.035 0.351-0.053 0.74-0.053 1.168s0.088 0.919 0.264 1.473c0.176 0.553 0.506 0.829 0.992 0.829 0.478 0 1.002-0.35 1.572-1.049 0.577-0.689 1.09-1.574 1.54-2.657l-0.084-0.271c-0.084-0.508-0.045-0.919 0.116-1.236 0.155-0.316 0.362-0.411 0.623-0.288zm28.369-1.421c-0.295 0.858-0.826 1.946-1.593 3.266-0.767 1.332-1.456 2.358-2.068 3.081-0.788 0.914-1.646 1.371-2.575 1.371-0.176 0-0.408-0.131-0.696-0.39-0.282-0.271-0.472-0.66-0.57-1.168-0.098-0.507-0.148-0.998-0.148-1.472 0-1.637 0.198-3.261 0.591-4.874-0.063 0.055-0.334 0.727-0.812 2.014-0.486 1.274-1.077 2.483-1.773 3.622-0.704 1.139-1.406 1.709-2.11 1.709-0.338 0-0.725-0.14-1.161-0.423-0.788-0.576-1.182-1.62-1.182-3.131 0-1.862 0.401-3.78 1.203-5.755 0.795-1.975 1.301-3.029 1.52-3.165 0.295-0.123 0.577-0.186 0.844-0.186s0.538 0.09 0.812 0.271c0.275 0.169 0.236 0.457-0.116 0.863-1.364 1.997-2.332 4.209-2.901 6.635-0.219 0.948-0.328 1.748-0.328 2.403 0 0.643 0.106 1.061 0.317 1.253 0.204 0.191 0.404 0.287 0.601 0.287 0.472 0 1.119-0.53 1.942-1.591 0.816-1.061 1.941-3.266 3.376-6.617 0.198-0.474 0.542-1.393 1.034-2.759 0.493-1.376 0.789-2.195 0.887-2.454 0.316 0 0.686 0.118 1.108 0.355s0.566 0.547 0.432 0.931c-0.949 2.527-1.614 4.389-1.994 5.585-0.387 1.207-0.647 2.619-0.781 4.232-0.021 0.282-0.031 0.643-0.031 1.083s0.077 0.8 0.232 1.083c0.295 0.508 0.703 0.536 1.224 0.085 0.527-0.463 1.242-1.349 2.142-2.658 0.907-1.308 1.638-2.594 2.194-3.859 0.077-0.157 0.169-0.198 0.275-0.118 0.112 0.079 0.168 0.157 0.168 0.237 0 0.079-0.021 0.164-0.063 0.254zm9.791 7.108c-0.253 0.474-0.306 0.852-0.159 1.134 0.148 0.283 0.313 0.423 0.496 0.423 0.19 0 0.383-0.045 0.581-0.135 0.844-0.406 1.667-1.219 2.469-2.437 0.794-1.219 1.192-2.459 1.192-3.724 0-0.699-0.482-1.455-1.445-2.268-0.458-0.384-0.715-0.609-0.771-0.677-0.535-0.563-0.869-1.129-1.002-1.692-0.274 0.756-0.408-0.418-0.148-1.625 0.133-1.738 0.921-3.3 2.364-4.688 1.435-1.388 2.743-2.082 3.925-2.082 0.752 0 1.28 0.215 1.583 0.643 0.301 0.428 0.453 0.846 0.453 1.253 0 0.406-0.074 0.88-0.221 1.421-0.148 0.542-0.448 1.05-0.897 1.524-0.121 0.123-0.219 0.089-0.296-0.102-0.042-0.191 0.043-0.452 0.254-0.779 0.203-0.338 0.337-0.79 0.401-1.354 0.055-0.563-0.103-0.913-0.475-1.049h-0.18c-0.767 0-1.727 0.462-2.88 1.388-1.155 0.914-2.055 2.099-2.701 3.554-0.261 0.53-0.391 1.072-0.391 1.625s0.239 1.049 0.718 1.489c0.196 0.192 0.53 0.496 1.002 0.914 0.471 0.407 0.805 0.706 1.002 0.897 0.197 0.192 0.433 0.491 0.707 0.897 0.275 0.407 0.422 0.784 0.444 1.134 0.098 0.948-0.177 1.992-0.823 3.132-0.929 1.646-2.308 2.797-4.137 3.452-0.415 0.158-0.833 0.237-1.255 0.237s-0.715-0.249-0.876-0.745c-0.057-0.135-0.084-0.333-0.084-0.592 0-0.271 0.158-0.706 0.474-1.303 0.296-0.474 0.766-0.936 1.414-1.388 0.056-0.022 0.106-5e-3 0.148 0.051 0.042 0.067 0.053 0.147 0.032 0.237-0.021 0.101-0.127 0.215-0.317 0.338-0.183 0.124-0.384 0.423-0.601 0.897z" fill="#333" style="text-transform:lowercase;white-space:pre"/>
<path transform="matrix(1.0551 0 0 1.6925 115.81 74.156)" d="m117.42 159.16c0.846-0.755 1.749-1.415 2.671-1.949 0.914-0.531 1.687-0.884 2.25-1.033 0.555-0.138 1.13-0.215 1.662-0.215 0.591 0 0.813 0.107 1.198 0.292 1.292-2.994 2.35-4.763 3.601-6.282 1.274-1.547 2.673-2.41 3.971-2.41 0.878 0 1.624 0.37 2.018 0.921 0.155 0.268 0.272 0.59 0.272 0.839 0 0.547-0.241 1.263-0.663 2.023-0.419 0.754-1.08 1.597-1.939 2.476-0.854 0.874-2.084 1.954-3.665 3.221-1.566 1.259-2.217 1.788-2.5 2.025-0.571 1.324-1.002 2.553-1.329 3.82-0.329 1.273-0.484 2.175-0.484 2.765 0 0.58 0.091 0.998 0.282 1.297 0.048 0.155 0.046 0.161 0.162 0.154 0.133 0.044 0.127 0.031 0.201-0.015 0.142-0.089 0.25-0.172 0.304-0.229 0.107-0.088 0.269-0.196 0.407-0.274 0.196-0.084 0.519-0.092 0.735-0.031l0.038 0.011 0.022 0.028c0.116 0.147 0.243 0.409 0.229 0.555-0.01 0.101-0.055 0.244-0.102 0.354l-0.024 0.057-0.041 0.052c-0.155 0.197-0.315 0.379-0.459 0.525l-0.039 0.038-0.038 0.024c-0.37 0.232-0.858 0.384-1.327 0.384-0.407 0-0.734-0.013-0.884-0.027-0.534-0.109-1.052-0.403-1.334-0.816-0.272-0.399-0.422-1-0.422-1.637 0-1.156 0.164-2.266 0.473-3.259 0.409-1.314 0.196-0.624 0.292-0.917-2.201 2.29-3.644 3.526-5.055 3.526-0.367 0-0.804-0.127-1.198-0.325-0.389-0.206-0.771-0.533-1.055-0.899-0.275-0.394-0.457-0.892-0.457-1.346 0-0.43 0.115-0.896 0.301-1.29 0.403-0.826 1.063-1.661 1.926-2.433zm-1.026 2.869c-0.148 0.286-0.201 0.538-0.201 0.854 0 0.261 0.046 0.449 0.202 0.672-1e-3 -0.037-2e-3 -0.074-2e-3 -0.112 0-0.46 0.309-1.164 0.82-1.972 0.518-0.797 1.144-1.546 1.818-2.182 0.611-0.541 1.27-1.025 1.953-1.436-0.125 0.069-0.254 0.143-0.389 0.222-0.878 0.506-1.701 1.106-2.509 1.831-0.803 0.708-1.349 1.39-1.692 2.123zm8.334-2.102c-0.336 0.849-0.703 1.915-1.108 3.215-0.291 0.913-0.427 1.877-0.427 2.961 0 0.516 0.074 0.818 0.248 1.073 0.14 0.205 0.272 0.315 0.531 0.37-0.042-0.054-0.079-0.112-0.111-0.17-0.249-0.447-0.378-1.037-0.378-1.723 0-0.676 0.179-1.702 0.516-3.015 0.339-1.307 0.819-2.677 1.425-4.074l0.045-0.103 0.084-0.073c0.021-0.019 0.053-0.046 0.095-0.081l0.619-1.37c1.684-3.721 3.618-6.441 5.723-8.062 0.144-0.107 0.29-0.204 0.433-0.288-0.911 0.127-1.809 0.759-2.849 2.021-1.195 1.451-2.413 3.616-3.682 6.563l-0.259 0.602-0.017-0.014-0.365 0.889-0.029 0.031zm-0.332-1.829l0.135-0.331c-0.135-0.01 0.026-0.014-0.498-0.014-0.485 0-1.094 0.188-1.943 0.625-0.859 0.444-1.635 0.982-2.39 1.654-0.63 0.59-1.165 1.234-1.647 1.983-0.475 0.738-0.66 1.168-0.66 1.428 0 0.297 0.023 0.423 0.081 0.524 2e-3 2e-3 3e-3 4e-3 4e-3 6e-3h5e-3c0.276 0 0.716-0.233 1.475-0.839 2.061-1.689 3.838-3.338 5.438-5.036zm8.575-7.969c0.215-0.381 0.302-0.637 0.311-0.857-0.153 0.03-0.353 0.14-0.686 0.399-2.001 1.513-2.926 2.265-4.562 5.903 0.695-0.558 0.837-0.636 2.148-1.927 1.305-1.286 2.221-2.436 2.789-3.518zm10.201 5.864c0.58 0 1.149 0.186 1.48 0.506 0.333 0.322 0.53 0.886 0.53 1.454 0 0.581-0.202 1.12-0.514 1.522-0.518 0.749-1.36 1.43-2.456 1.967-1.08 0.529-2.057 0.835-2.842 0.9-0.182 8e-3 -0.424-0.019-0.57-0.096-0.069-0.036-0.134-0.098-0.19-0.171-0.144 0.279-0.257 0.557-0.34 0.836-0.085 0.265-0.118 0.488-0.118 0.742 0 0.184 0.037 0.29 0.237 0.481 0.139 0.193 0.328 0.229 0.753 0.229 0.504 0 1.053-0.122 1.742-0.403 2.045-0.824 3.574-2.06 4.662-3.742 0.098-0.116 0.283-0.271 0.434-0.309 0.185-0.048 0.415 0.048 0.57 0.143 0.15 0.105 0.312 0.323 0.312 0.531 0 0.146-0.075 0.333-0.151 0.457-0.585 0.967-1.345 1.858-2.234 2.613-1.722 1.459-3.501 2.25-5.175 2.25-1.439 0-2.588-0.536-3.237-1.434-0.24-0.386-0.393-0.908-0.393-1.426 0-0.502 0.151-1.142 0.402-1.79 0.512-1.136 1.593-2.33 3.163-3.483 1.57-1.146 2.93-1.777 3.935-1.777zm-2.617 4.4c1.215-0.652 2.052-1.281 2.59-1.946 0.19-0.246 0.25-0.408 0.256-0.612-0.165 0.013-0.383 0.087-0.717 0.261-0.833 0.384-1.681 1.044-2.62 2.032-0.256 0.266-0.485 0.526-0.688 0.782 0.313-0.077 0.693-0.246 1.179-0.517zm1.854-3.274c-0.685 0.208-1.527 0.68-2.581 1.457-1.496 1.087-2.408 2.071-2.833 3.066-0.227 0.574-0.323 1.009-0.323 1.401 0 0.388 0.052 0.633 0.226 0.873 0.136 0.226 0.303 0.408 0.506 0.551-0.154-0.261-0.252-0.549-0.252-0.814 0-0.332 0.061-0.703 0.162-1.038 0.329-1.028 1.024-2.12 2.026-3.177 0.995-1.038 1.988-1.802 2.913-2.244 0.052-0.026 0.104-0.051 0.156-0.075zm13.704 4.125l9e-3 -0.025c0.034-0.101 0.07-0.208 0.109-0.32l0.045-0.131 0.017-0.014 0.36-0.983c0.537-1.461 1.376-3.225 2.503-5.252 1.423-2.54 2.935-4.445 4.471-5.641 0.138-0.105 0.281-0.199 0.423-0.279-0.519 0.093-1.005 0.369-1.542 0.896-0.383 0.344-0.662 0.62-0.846 0.843l-0.863 1.091c-0.989 1.313-2.09 3.255-3.334 5.878-1.242 2.62-1.877 4.487-1.942 5.728v0.148c0 0.613 0.108 0.935 0.382 1.202 0.124 0.121 0.26 0.21 0.431 0.271-0.061-0.062-0.117-0.128-0.166-0.196-0.215-0.365-0.357-0.829-0.357-1.257 0-0.376 0.011-0.689 0.032-0.917 0.02-0.21 0.114-0.568 0.27-1.043zm8.497-11.112c0.204-0.378 0.273-0.581 0.273-0.719 0-0.045 1e-3 -0.072 1e-3 -0.089-0.154 8e-3 -0.326 0.09-0.645 0.344-1.449 1.11-2.832 2.865-4.209 5.339-1.113 1.999-1.18 1.901-1.698 3.319 0.846-0.781 1.15-1.027 2.732-2.987 1.581-1.964 2.754-3.685 3.546-5.207zm-7.48 11.226c-0.185 0.54-0.273 0.854-0.289 1.022-0.019 0.198-0.028 0.465-0.028 0.823 0 0.292 0.046 0.489 0.203 0.724 0.083 0.176 0.104 0.165 0.251 0.175 0.177 0.012 0.372-0.048 0.694-0.242 0.524-0.27 1.178-0.777 2.013-1.555 0.845-0.778 1.465-1.45 1.913-2.079 0.132-0.143 0.397-0.313 0.586-0.313 0.097 0 0.261 0.037 0.353 0.09 0.102 0.059 0.235 0.219 0.275 0.326 0.06 0.16 0.038 0.42-9e-3 0.596l-0.012 0.049-0.031 0.053c-0.303 0.535-0.861 1.232-1.628 2.035-0.771 0.791-1.49 1.438-2.12 1.913-0.682 0.493-1.448 0.788-2.148 0.788-0.787 0-1.513-0.238-1.947-0.662-0.436-0.426-0.683-1.144-0.683-1.918 0-0.053 1e-3 -0.135 1e-3 -0.188 0.085-1.373 0.773-3.442 2.037-6.116 1.262-2.657 2.425-4.699 3.45-6.066l0.878-1.11c0.215-0.257 0.536-0.579 0.939-0.941 0.814-0.759 1.747-1.199 2.645-1.199 0.896 0 1.653 0.397 2.047 0.987 0.12 0.241 0.203 0.606 0.203 0.973 0 0.395-0.192 0.981-0.486 1.589-1.951 3.389-4.988 6.797-9.107 10.246zm17.172-4.975c0.283 0 0.593 0.063 0.796 0.172 0.224 0.119 0.441 0.443 0.534 0.678 0.036 0.254-0.016 0.591-0.12 0.827-0.08 0.148-0.135 0.269-0.161 0.341-0.038 0.088-0.063 0.151-0.081 0.199l-9e-3 0.023-0.011 0.023c-0.095 0.19-0.189 0.373-0.284 0.548-1.051 2.106-1.585 3.378-1.628 3.888-0.018 0.149-0.026 0.333-0.026 0.581 0 0.175 6e-3 0.229 0.108 0.313 0.054 0.09 0.038 0.063 0.124 0.068 0.107 5e-3 0.19-0.012 0.383-0.122 0.451-0.237 1.08-0.727 1.931-1.501 0.85-0.763 1.531-1.505 2.053-2.229 0.083-0.092 0.245-0.222 0.373-0.258 0.136-0.038 0.366 4e-3 0.493 0.052 0.158 0.095 0.415 0.363 0.415 0.587 0 0.123-0.051 0.28-0.112 0.392-0.302 0.54-0.841 1.233-1.582 2.029-1.228 1.312-2.33 2.171-3.197 2.51-0.499 0.176-0.977 0.279-1.349 0.279-0.441 0-0.905-0.133-1.221-0.358-0.315-0.226-0.587-0.643-0.738-1.058-0.048-0.174-0.081-0.406-0.081-0.624 0-0.262 0.043-0.57 0.127-0.922-0.013 2e-3 -0.026 2e-3 -0.039 2e-3 -0.225 0-0.505-0.243-0.615-0.416-0.042-0.106-0.083-0.271-0.083-0.384 0-0.172 0.118-0.412 0.221-0.554 0.908-1.126 1.55-1.981 2.061-2.736 9e-3 -0.147-6e-3 -0.189 0.09-0.412l-0.021 0.048c0.394-1.087 0.902-1.798 1.344-1.975l0.028-0.011h0.277zm-0.159 1c-0.109 0.085-0.196 0.324-0.55 1.328l-0.015 0.043-8e-3 0.011c-0.05 0.071-0.061-0.019-0.039-0.06l-0.94 1.737c-0.085 0.113-0.172 0.229-0.262 0.346l0.059 0.028-0.026 0.048 0.031-0.046 0.374 0.172c-0.588 1.289-0.855 2.173-0.855 2.753 0 0.156 5e-3 0.236 0.036 0.328 0.088 0.285 0.187 0.413 0.365 0.541 0.155 0.11 0.293 0.158 0.526 0.169-0.062-0.046-0.12-0.095-0.17-0.146-0.202-0.251-0.357-0.627-0.357-0.972 0-0.272 0.012-0.514 0.034-0.699 0.077-0.65 0.661-2.081 1.728-4.224 0.092-0.168 0.182-0.343 0.27-0.518 0.021-0.055 0.043-0.11 0.085-0.208 0.044-0.112 0.111-0.256 0.203-0.428 0.054-0.082 0.051-0.073 0.028-0.133-3e-3 0-0.011-5e-3 -0.034-0.017-0.076-0.041-0.14-0.053-0.324-0.053h-0.159zm2.641-3.229l8e-3 -0.091c-0.023 0.271-0.186 0.675-0.45 1.081-0.273 0.414-0.669 0.789-0.98 0.789-0.44 0-0.856-0.069-1.121-0.199-0.311-0.153-0.579-0.554-0.579-0.891 0-0.262 0.589-0.811 1.4-1.44l0.467-0.35c0.317-0.27 0.657-0.5 0.873-0.5 0.117 0 0.34 0.077 0.438 0.175 0.097 0.098 0.16 0.321 0.172 0.435l5e-3 0.042zm-0.99-0.05l-0.129 0.097c-0.526 0.407-0.797 0.609-0.919 0.663 0.13 0.047 0.309 0.069 0.614 0.069-0.042 0-0.062-4e-3 0.142-0.331 0.188-0.279 0.278-0.421 0.292-0.498zm18.391 4.258l0.124-0.496c-0.636 0.04-1.495 0.545-2.725 1.659-1.289 1.15-2.056 2.239-2.374 3.379-0.087 0.289-0.12 0.506-0.12 0.719 0 0.189 5e-3 0.259 0.084 0.349 0.127 0.248 0.267 0.281 0.626 0.281 0.435 0 0.875-0.054 1.384-0.174 1.153-0.324 2.05-0.762 2.798-1.36 0.767-0.596 1.561-1.424 2.425-2.525 0.08-0.09 0.231-0.215 0.349-0.256 0.125-0.043 0.356-0.022 0.481 7e-3 0.09 0.038 0.224 0.112 0.295 0.183 0.09 0.09 0.188 0.309 0.188 0.445 0 0.134-0.063 0.334-0.134 0.496l-0.021 0.046-0.032 0.045c-0.915 1.237-1.898 2.269-2.907 3.048-1.034 0.792-2.284 1.332-3.627 1.569-0.392 0.062-0.777 0.096-1.119 0.096-0.99 0-1.861-0.306-2.435-0.809-0.528-0.526-0.865-1.204-0.865-1.851 0-0.594 0.159-1.286 0.432-1.96 0.51-1.136 1.592-2.33 3.163-3.483 1.569-1.146 2.93-1.777 3.935-1.777 0.255 0 0.566 0.051 0.807 0.119 0.31 0.116 0.619 0.299 0.799 0.501 0.191 0.216 0.324 0.569 0.324 0.86 0 0.358-0.15 0.8-0.378 1.201-0.119 0.204-0.26 0.398-0.383 0.499-0.084 0.069-0.262 0.155-0.385 0.165-0.147 0.011-0.372-0.104-0.484-0.189-0.085-0.095-0.184-0.23-0.222-0.352-0.041-0.132-0.037-0.303-3e-3 -0.435zm-0.918-1.218c-0.671 0.22-1.489 0.685-2.501 1.432-1.497 1.087-2.41 2.072-2.834 3.067-0.247 0.592-0.352 1.084-0.352 1.57 0 0.433 0.132 0.746 0.552 1.126 0.063 0.063 0.129 0.12 0.2 0.171-0.141-0.242-0.242-0.58-0.242-0.887 0-0.293 0.059-0.649 0.16-1 0.388-1.286 1.301-2.606 2.666-3.842 0.858-0.767 1.656-1.326 2.351-1.637zm15.582-0.761c0.282 0 0.592 0.063 0.796 0.172 0.222 0.119 0.428 0.393 0.521 0.629l9e-3 0.023 5e-3 0.029c0.035 0.25-0.018 0.589-0.122 0.826-0.08 0.147-0.136 0.269-0.16 0.339-0.038 0.088-0.063 0.151-0.081 0.199l-9e-3 0.024-0.012 0.024c-0.096 0.189-0.189 0.37-0.283 0.545-1.05 2.107-1.585 3.379-1.628 3.889-0.018 0.149-0.026 0.333-0.026 0.581 0 0.176 6e-3 0.231 0.108 0.313 0.054 0.09 0.038 0.063 0.124 0.068 0.106 5e-3 0.19-0.012 0.382-0.122 0.452-0.237 1.08-0.726 1.931-1.501 0.85-0.763 1.531-1.503 2.052-2.227 0.083-0.092 0.246-0.223 0.374-0.26 0.137-0.038 0.368 5e-3 0.495 0.053 0.155 0.091 0.414 0.36 0.414 0.586 0 0.128-0.055 0.287-0.112 0.392-0.302 0.54-0.843 1.233-1.582 2.029-1.228 1.312-2.33 2.172-3.198 2.51-0.499 0.176-0.976 0.279-1.348 0.279-0.442 0-0.906-0.133-1.221-0.358-0.315-0.226-0.587-0.643-0.738-1.058-0.048-0.174-0.081-0.406-0.081-0.624 0-0.262 0.043-0.57 0.127-0.922-0.013 2e-3 -0.027 2e-3 -0.04 2e-3 -0.225 0-0.505-0.243-0.614-0.417-0.042-0.105-0.083-0.27-0.083-0.383 0-0.17 0.114-0.408 0.221-0.554 0.907-1.126 1.549-1.981 2.061-2.736 9e-3 -0.147-7e-3 -0.188 0.091-0.415l-0.022 0.052c0.393-1.088 0.902-1.799 1.344-1.976l0.028-0.011h0.277zm-0.159 1c-0.109 0.084-0.197 0.324-0.55 1.328l-0.016 0.045-8e-3 0.012c-0.05 0.067-0.06-0.024-0.038-0.063l-1.085 1.928c-0.038 0.051-0.077 0.102-0.117 0.154l0.438 0.203c-0.588 1.289-0.855 2.173-0.855 2.753 0 0.156 5e-3 0.236 0.036 0.328 0.088 0.286 0.187 0.413 0.365 0.541 0.155 0.11 0.293 0.158 0.526 0.169-0.062-0.046-0.119-0.095-0.17-0.145-0.203-0.253-0.357-0.629-0.357-0.973 0-0.272 0.012-0.514 0.034-0.699 0.077-0.65 0.661-2.081 1.729-4.224 0.091-0.169 0.176-0.335 0.269-0.519 0.021-0.055 0.042-0.108 0.084-0.206 0.044-0.114 0.111-0.258 0.205-0.431 0.054-0.08 0.049-0.07 0.027-0.131-2e-3 0-0.011-4e-3 -0.035-0.017-0.076-0.041-0.139-0.053-0.323-0.053h-0.159zm2.641-3.228l8e-3 -0.092c-0.023 0.271-0.187 0.676-0.45 1.081-0.273 0.415-0.67 0.789-0.98 0.789-0.44 0-0.856-0.069-1.121-0.199-0.311-0.153-0.579-0.554-0.579-0.891 0-0.262 0.589-0.811 1.4-1.44l0.467-0.35c0.317-0.27 0.656-0.5 0.873-0.5 0.116 0 0.339 0.077 0.436 0.174s0.161 0.32 0.174 0.436l5e-3 0.041zm-0.99-0.051l-0.129 0.097c-0.526 0.407-0.797 0.609-0.919 0.663 0.13 0.047 0.309 0.069 0.614 0.069-0.042 0-0.062-3e-3 0.142-0.331 0.187-0.279 0.278-0.422 0.292-0.498zm17.336 6.939c0.32-0.659 0.309-0.782 0.309-1.08 0-0.337-0.027-0.55-0.098-0.704-0.055-0.169-0.087-0.412-0.05-0.579 0.012-0.053 0.032-0.109 0.059-0.164-0.06-0.068-0.109-0.14-0.13-0.204-0.039-0.118-0.061-0.295-0.061-0.449v-6e-3c-0.015 4e-3 -0.035 6e-3 -0.06 6e-3 -0.508 0-1.153 0.469-2.141 1.616-0.989 1.149-1.552 2.222-1.735 3.363-0.031 0.186-0.044 0.376-0.044 0.611 0 0.184 0.05 0.358 0.195 0.643 0.101 0.197 0.15 0.217 0.495 0.217 0.357 0 0.707-0.14 1.192-0.521 0.448-0.33 0.832-0.724 1.19-1.225-0.077-0.396 8e-3 -0.846 0.209-1.148 0.126-0.141 0.331-0.298 0.508-0.349 0.174-0.05 0.104-0.023 0.162-0.027zm1.52-3.155c0.295 0.105 0.622 0.365 0.756 0.667 0.119 0.268 0.183 0.665 0.183 1.078 0 0.849-0.478 1.906-1.331 3.116-0.032 0.286-0.091 0.567-0.237 0.801-0.09 0.144-0.348 0.363-0.563 0.38-0.04 3e-3 -0.089-3e-3 -0.14-0.014l0.284-0.299c-0.095 0.1-0.191 0.2-0.288 0.299-0.113-0.025-0.238-0.077-0.307-0.135-0.076-0.063-0.166-0.192-0.218-0.289l0.331 0.62c-0.221 0.223-0.441 0.437-0.649 0.633-0.8 0.656-1.774 1.038-2.762 1.038-0.569 0-1.102-0.155-1.518-0.432-0.75-0.501-1.222-1.415-1.222-2.528 0-1.179 0.424-2.432 1.2-3.631 0.453-0.7 1.002-1.34 1.601-1.865 0.979-0.846 2.014-1.334 2.939-1.334 0.245 0 0.523 0.047 0.748 0.116 0.336 0.12 0.674 0.329 0.864 0.569 0.195 0.245 0.318 0.629 0.318 0.965 0 0.08-5e-3 0.162-0.014 0.243 8e-3 0 0.017 1e-3 0.025 2e-3zm-0.355 2.876c0.201-0.437 0.294-0.808 0.294-1.131 0-0.334-0.03-0.521-0.097-0.672-0.053-0.119 5e-3 -0.116-0.073-0.105-0.106-0.037-0.092-0.049-0.136 0.041-4e-3 2e-3 -7e-3 3e-3 -0.01 4e-3 1e-3 2e-3 2e-3 3e-3 3e-3 5e-3 0.101 0.271 0.163 0.648 0.163 1.057 0 0.223-0.051 0.495-0.144 0.801zm-0.837 1.386l-0.161-0.108c-0.028-0.018-0.044-0.034-0.052-0.046 1e-3 0.011 1e-3 0.026-3e-3 0.046-0.099 0.066-0.095 0.086-0.053 0.203l0.081 0.163 0.094-0.129c0.032-0.043 0.063-0.086 0.094-0.129zm-5.12 2.069c-0.101-0.269-0.159-0.539-0.159-0.766 0-0.271 0.021-0.541 0.056-0.769 0.231-1.285 0.9-2.62 1.965-3.857 0.785-0.912 1.553-1.546 2.222-1.817-0.619 0.076-1.248 0.404-1.993 1.069-0.548 0.474-1.007 1.009-1.42 1.655-0.718 1.082-1.04 2.068-1.04 3.089 0 0.66 0.098 1.097 0.368 1.396zm30.845-1.226c-0.741 0.801-1.432 1.44-2.034 1.885-0.815 0.575-1.774 0.905-2.733 0.905-0.25 0-0.604-0.13-0.917-0.301-0.335-0.22-0.641-0.586-0.761-0.971-0.103-0.333-0.162-0.698-0.162-1.018 0-0.134 4e-3 -0.269 0.011-0.404-0.319 0.417-0.67 0.822-1.046 1.206-0.732 0.72-1.575 1.158-2.355 1.158-0.375 0-0.856-0.116-1.307-0.295-0.858-0.438-1.413-1.283-1.413-2.305 0-1.18 0.432-2.447 1.22-3.671 0.765-1.184 1.365-1.905 1.68-2.065l0.014-8e-3 0.04-0.01c0.309-0.079 0.639-0.126 0.926-0.126 0.304 0 0.648 0.075 0.951 0.194 0.109 0.047 0.266 0.142 0.344 0.236 0.097 0.117 0.163 0.389 0.131 0.538-0.045 0.207-0.245 0.427-0.442 0.583-1.25 1.136-2.095 2.337-2.606 3.714-0.197 0.527-0.278 0.911-0.278 1.245 0 0.286-0.039 0.319 0.053 0.309 0.138 0.089 0.202 0.101 0.317 0.101 0.333 0 0.789-0.23 1.526-0.829 0.737-0.591 1.754-1.84 3.1-3.801 0.181-0.271 0.496-0.797 0.961-1.6 0.467-0.813 0.75-1.302 0.846-1.46l0.148-0.244 0.279 4e-3c0.349 5e-3 0.782 0.087 1.215 0.238 0.248 0.087 0.513 0.248 0.638 0.415 0.077 0.104 0.149 0.302 0.153 0.433 3e-3 0.125-0.064 0.321-0.118 0.432-0.897 1.488-1.519 2.575-1.873 3.271-0.35 0.669-0.57 1.42-0.689 2.334-0.018 0.148-0.026 0.329-0.026 0.577 0 0.179-3e-3 0.225 0.09 0.305 0.064 0.094 0.056 0.069 0.152 0.073 0.115 5e-3 0.204-0.015 0.4-0.128 0.467-0.251 1.096-0.741 1.934-1.502 0.842-0.755 1.513-1.494 2.021-2.217 0.085-0.094 0.252-0.226 0.382-0.261 0.135-0.037 0.356 2e-3 0.482 0.047 0.077 0.037 0.176 0.092 0.238 0.146 0.089 0.078 0.211 0.3 0.211 0.447 0 0.14-0.088 0.34-0.161 0.451l0.036-0.055c-0.302 0.539-0.84 1.23-1.578 2.024zm-4.683 1.789c-0.062-0.043-0.119-0.09-0.17-0.138-0.195-0.251-0.354-0.64-0.354-0.981 0-0.272 0.012-0.514 0.034-0.699 0.135-0.991 0.407-1.913 0.791-2.67 0.351-0.687 0.95-1.736 1.792-3.138-0.01-3e-3 -0.021-7e-3 -0.032-0.011-0.367-0.129-0.359-0.169-0.61-0.164-0.143 0.246-0.215 0.369-0.681 1.181-0.234 0.404-0.435 0.745-0.601 1.022l0.103-0.08-0.67 1.691c-0.361 0.91-0.526 1.779-0.526 2.698 0 0.24 0.035 0.455 0.118 0.722 0.066 0.215 0.12 0.309 0.319 0.409 0.233 0.135 0.319 0.159 0.403 0.159 0.028 0 0.056 0 0.084-1e-3zm-7.027-1.687c0.048-0.362 0.157-0.775 0.314-1.205 0.538-1.407 1.446-2.741 2.666-3.914-0.035-2e-3 -0.07-3e-3 -0.107-3e-3 -0.219 0-0.41 0.025-0.651 0.088-0.132 0.082-0.428 0.513-1.169 1.663-0.732 1.11-1.06 2.109-1.06 3.129 0 0.085 2e-3 0.166 7e-3 0.242zm22.512 2.153c-0.042 0.045-0.066 0.075-0.081 0.096 5e-3 0 0.011-1e-3 0.021-1e-3 0.144 0 0.257-0.015 0.411-0.06 0.741-0.214 1.415-0.634 2.134-1.322 0.703-0.653 0.975-1.205 0.975-1.838 0-0.234-0.247-0.46-1.102-0.897-0.438-0.229-0.689-0.365-0.772-0.425-0.243-0.163-0.459-0.342-0.639-0.527l0.395-0.64c-0.053 0.087-0.139 0.199-0.209 0.255-0.083 0.066-0.267 0.123-0.415 0.125-0.118-0.152-0.212-0.306-0.276-0.454l0.193 0.449c-0.012-2e-3 -0.024-5e-3 -0.035-8e-3 -0.14-0.042-0.311-0.216-0.36-0.312-0.037-0.073-0.071-0.19-0.084-0.271-0.043-0.267 2e-3 -0.708 0.127-1.114 0.18-1.154 1.037-2.203 2.47-3.08 1.41-0.843 2.779-1.301 3.977-1.301 0.775 0 1.441 0.198 1.831 0.506 0.337 0.314 0.599 0.748 0.599 1.114 0 0.301-0.095 0.682-0.252 1.04-0.174 0.398-0.568 0.804-1.038 1.121-0.13 0.068-0.375 0.141-0.53 0.108-0.156-0.034-0.35-0.202-0.44-0.318l-0.042-0.054-9e-3 -0.05c-0.032-0.177-0.02-0.449 0.058-0.598 0.062-0.121 0.172-0.257 0.293-0.376 0.147-0.134 0.207-0.268 0.246-0.532 0.012-0.017 0.021-0.03 0.028-0.041h-0.154c-0.655 0-1.456 0.237-2.509 0.768-1.046 0.509-1.82 1.15-2.388 1.962-0.21 0.248-0.263 0.413-0.263 0.65 0 0.174 0.059 0.257 0.44 0.453 0.179 0.109 0.486 0.283 0.929 0.528 0.449 0.241 0.776 0.424 0.971 0.542 0.211 0.13 0.475 0.337 0.749 0.59 0.308 0.284 0.517 0.664 0.577 0.978 0.067 0.693-0.248 1.501-0.906 2.245-0.95 1.027-2.385 1.782-4.177 2.191-0.422 0.098-0.874 0.153-1.303 0.153-0.517 0-0.995-0.298-1.257-0.684-0.085-0.166-0.153-0.399-0.153-0.606 0-0.286 0.271-0.735 0.596-1.124 0.327-0.316 0.85-0.641 1.495-0.924l0.057-0.025 0.023-3e-3c0.164-0.014 0.466 0.078 0.613 0.162 0.107 0.165 0.172 0.466 0.145 0.66-0.118 0.189-0.352 0.397-0.576 0.495-0.101 0.026-0.208 0.149-0.383 0.394zm2.957-0.365c0.478-0.281 0.883-0.61 1.222-0.995 0.568-0.602 0.767-1.011 0.658-1.433 0.017-0.098-0.054-0.189-0.266-0.385-0.045-0.041-0.088-0.08-0.128-0.116 0.011 0.057 0.017 0.113 0.017 0.169 0 0.861-0.482 1.775-1.284 2.561-0.073 0.068-0.146 0.134-0.219 0.199zm-1.74-6.223l0.021 0.072c0.082-0.272 0.223-0.544 0.399-0.779 0.658-0.908 1.59-1.667 2.731-2.238 0.788-0.391 1.522-0.66 2.165-0.788-0.985 0.043-2.038 0.408-3.265 1.154-1.301 0.763-1.93 1.503-2.002 2.403l-4e-3 0.05-0.02 0.053c-9e-3 0.025-0.017 0.049-0.025 0.073z" fill="none"/>
<path transform="matrix(1.0551 0 0 1.6925 115.81 74.156)" d="m117.42 159.16c0.846-0.755 1.749-1.415 2.671-1.949 0.914-0.531 1.687-0.884 2.25-1.033 0.555-0.138 1.13-0.215 1.662-0.215 0.591 0 0.813 0.107 1.198 0.292 1.292-2.994 2.35-4.763 3.601-6.282 1.274-1.547 2.673-2.41 3.971-2.41 0.878 0 1.624 0.37 2.018 0.921 0.155 0.268 0.272 0.59 0.272 0.839 0 0.547-0.241 1.263-0.663 2.023-0.419 0.754-1.08 1.597-1.939 2.476-0.854 0.874-2.084 1.954-3.665 3.221-1.566 1.259-2.217 1.788-2.5 2.025-0.571 1.324-1.002 2.553-1.329 3.82-0.329 1.273-0.484 2.175-0.484 2.765 0 0.58 0.091 0.998 0.282 1.297 0.048 0.155 0.046 0.161 0.162 0.154 0.133 0.044 0.127 0.031 0.201-0.015 0.142-0.089 0.25-0.172 0.304-0.229 0.107-0.088 0.269-0.196 0.407-0.274 0.196-0.084 0.519-0.092 0.735-0.031l0.038 0.011 0.022 0.028c0.116 0.147 0.243 0.409 0.229 0.555-0.01 0.101-0.055 0.244-0.102 0.354l-0.024 0.057-0.041 0.052c-0.155 0.197-0.315 0.379-0.459 0.525l-0.039 0.038-0.038 0.024c-0.37 0.232-0.858 0.384-1.327 0.384-0.407 0-0.734-0.013-0.884-0.027-0.534-0.109-1.052-0.403-1.334-0.816-0.272-0.399-0.422-1-0.422-1.637 0-1.156 0.164-2.266 0.473-3.259 0.409-1.314 0.196-0.624 0.292-0.917-2.201 2.29-3.644 3.526-5.055 3.526-0.367 0-0.804-0.127-1.198-0.325-0.389-0.206-0.771-0.533-1.055-0.899-0.275-0.394-0.457-0.892-0.457-1.346 0-0.43 0.115-0.896 0.301-1.29 0.403-0.826 1.063-1.661 1.926-2.433zm-1.026 2.869c-0.148 0.286-0.201 0.538-0.201 0.854 0 0.261 0.046 0.449 0.202 0.672-1e-3 -0.037-2e-3 -0.074-2e-3 -0.112 0-0.46 0.309-1.164 0.82-1.972 0.518-0.797 1.144-1.546 1.818-2.182 0.611-0.541 1.27-1.025 1.953-1.436-0.125 0.069-0.254 0.143-0.389 0.222-0.878 0.506-1.701 1.106-2.509 1.831-0.803 0.708-1.349 1.39-1.692 2.123zm8.334-2.102c-0.336 0.849-0.703 1.915-1.108 3.215-0.291 0.913-0.427 1.877-0.427 2.961 0 0.516 0.074 0.818 0.248 1.073 0.14 0.205 0.272 0.315 0.531 0.37-0.042-0.054-0.079-0.112-0.111-0.17-0.249-0.447-0.378-1.037-0.378-1.723 0-0.676 0.179-1.702 0.516-3.015 0.339-1.307 0.819-2.677 1.425-4.074l0.045-0.103 0.084-0.073c0.021-0.019 0.053-0.046 0.095-0.081l0.619-1.37c1.684-3.721 3.618-6.441 5.723-8.062 0.144-0.107 0.29-0.204 0.433-0.288-0.911 0.127-1.809 0.759-2.849 2.021-1.195 1.451-2.413 3.616-3.682 6.563l-0.259 0.602-0.017-0.014-0.365 0.889-0.029 0.031zm-0.332-1.829l0.135-0.331c-0.135-0.01 0.026-0.014-0.498-0.014-0.485 0-1.094 0.188-1.943 0.625-0.859 0.444-1.635 0.982-2.39 1.654-0.63 0.59-1.165 1.234-1.647 1.983-0.475 0.738-0.66 1.168-0.66 1.428 0 0.297 0.023 0.423 0.081 0.524 2e-3 2e-3 3e-3 4e-3 4e-3 6e-3h5e-3c0.276 0 0.716-0.233 1.475-0.839 2.061-1.689 3.838-3.338 5.438-5.036zm8.575-7.969c0.215-0.381 0.302-0.637 0.311-0.857-0.153 0.03-0.353 0.14-0.686 0.399-2.001 1.513-2.926 2.265-4.562 5.903 0.695-0.558 0.837-0.636 2.148-1.927 1.305-1.286 2.221-2.436 2.789-3.518zm10.201 5.864c0.58 0 1.149 0.186 1.48 0.506 0.333 0.322 0.53 0.886 0.53 1.454 0 0.581-0.202 1.12-0.514 1.522-0.518 0.749-1.36 1.43-2.456 1.967-1.08 0.529-2.057 0.835-2.842 0.9-0.182 8e-3 -0.424-0.019-0.57-0.096-0.069-0.036-0.134-0.098-0.19-0.171-0.144 0.279-0.257 0.557-0.34 0.836-0.085 0.265-0.118 0.488-0.118 0.742 0 0.184 0.037 0.29 0.237 0.481 0.139 0.193 0.328 0.229 0.753 0.229 0.504 0 1.053-0.122 1.742-0.403 2.045-0.824 3.574-2.06 4.662-3.742 0.098-0.116 0.283-0.271 0.434-0.309 0.185-0.048 0.415 0.048 0.57 0.143 0.15 0.105 0.312 0.323 0.312 0.531 0 0.146-0.075 0.333-0.151 0.457-0.585 0.967-1.345 1.858-2.234 2.613-1.722 1.459-3.501 2.25-5.175 2.25-1.439 0-2.588-0.536-3.237-1.434-0.24-0.386-0.393-0.908-0.393-1.426 0-0.502 0.151-1.142 0.402-1.79 0.512-1.136 1.593-2.33 3.163-3.483 1.57-1.146 2.93-1.777 3.935-1.777zm-2.617 4.4c1.215-0.652 2.052-1.281 2.59-1.946 0.19-0.246 0.25-0.408 0.256-0.612-0.165 0.013-0.383 0.087-0.717 0.261-0.833 0.384-1.681 1.044-2.62 2.032-0.256 0.266-0.485 0.526-0.688 0.782 0.313-0.077 0.693-0.246 1.179-0.517zm1.854-3.274c-0.685 0.208-1.527 0.68-2.581 1.457-1.496 1.087-2.408 2.071-2.833 3.066-0.227 0.574-0.323 1.009-0.323 1.401 0 0.388 0.052 0.633 0.226 0.873 0.136 0.226 0.303 0.408 0.506 0.551-0.154-0.261-0.252-0.549-0.252-0.814 0-0.332 0.061-0.703 0.162-1.038 0.329-1.028 1.024-2.12 2.026-3.177 0.995-1.038 1.988-1.802 2.913-2.244 0.052-0.026 0.104-0.051 0.156-0.075zm13.704 4.125l9e-3 -0.025c0.034-0.101 0.07-0.208 0.109-0.32l0.045-0.131 0.017-0.014 0.36-0.983c0.537-1.461 1.376-3.225 2.503-5.252 1.423-2.54 2.935-4.445 4.471-5.641 0.138-0.105 0.281-0.199 0.423-0.279-0.519 0.093-1.005 0.369-1.542 0.896-0.383 0.344-0.662 0.62-0.846 0.843l-0.863 1.091c-0.989 1.313-2.09 3.255-3.334 5.878-1.242 2.62-1.877 4.487-1.942 5.728v0.148c0 0.613 0.108 0.935 0.382 1.202 0.124 0.121 0.26 0.21 0.431 0.271-0.061-0.062-0.117-0.128-0.166-0.196-0.215-0.365-0.357-0.829-0.357-1.257 0-0.376 0.011-0.689 0.032-0.917 0.02-0.21 0.114-0.568 0.27-1.043zm8.497-11.112c0.204-0.378 0.273-0.581 0.273-0.719 0-0.045 1e-3 -0.072 1e-3 -0.089-0.154 8e-3 -0.326 0.09-0.645 0.344-1.449 1.11-2.832 2.865-4.209 5.339-1.113 1.999-1.18 1.901-1.698 3.319 0.846-0.781 1.15-1.027 2.732-2.987 1.581-1.964 2.754-3.685 3.546-5.207zm-7.48 11.226c-0.185 0.54-0.273 0.854-0.289 1.022-0.019 0.198-0.028 0.465-0.028 0.823 0 0.292 0.046 0.489 0.203 0.724 0.083 0.176 0.104 0.165 0.251 0.175 0.177 0.012 0.372-0.048 0.694-0.242 0.524-0.27 1.178-0.777 2.013-1.555 0.845-0.778 1.465-1.45 1.913-2.079 0.132-0.143 0.397-0.313 0.586-0.313 0.097 0 0.261 0.037 0.353 0.09 0.102 0.059 0.235 0.219 0.275 0.326 0.06 0.16 0.038 0.42-9e-3 0.596l-0.012 0.049-0.031 0.053c-0.303 0.535-0.861 1.232-1.628 2.035-0.771 0.791-1.49 1.438-2.12 1.913-0.682 0.493-1.448 0.788-2.148 0.788-0.787 0-1.513-0.238-1.947-0.662-0.436-0.426-0.683-1.144-0.683-1.918 0-0.053 1e-3 -0.135 1e-3 -0.188 0.085-1.373 0.773-3.442 2.037-6.116 1.262-2.657 2.425-4.699 3.45-6.066l0.878-1.11c0.215-0.257 0.536-0.579 0.939-0.941 0.814-0.759 1.747-1.199 2.645-1.199 0.896 0 1.653 0.397 2.047 0.987 0.12 0.241 0.203 0.606 0.203 0.973 0 0.395-0.192 0.981-0.486 1.589-1.951 3.389-4.988 6.797-9.107 10.246zm17.172-4.975c0.283 0 0.593 0.063 0.796 0.172 0.224 0.119 0.441 0.443 0.534 0.678 0.036 0.254-0.016 0.591-0.12 0.827-0.08 0.148-0.135 0.269-0.161 0.341-0.038 0.088-0.063 0.151-0.081 0.199l-9e-3 0.023-0.011 0.023c-0.095 0.19-0.189 0.373-0.284 0.548-1.051 2.106-1.585 3.378-1.628 3.888-0.018 0.149-0.026 0.333-0.026 0.581 0 0.175 6e-3 0.229 0.108 0.313 0.054 0.09 0.038 0.063 0.124 0.068 0.107 5e-3 0.19-0.012 0.383-0.122 0.451-0.237 1.08-0.727 1.931-1.501 0.85-0.763 1.531-1.505 2.053-2.229 0.083-0.092 0.245-0.222 0.373-0.258 0.136-0.038 0.366 4e-3 0.493 0.052 0.158 0.095 0.415 0.363 0.415 0.587 0 0.123-0.051 0.28-0.112 0.392-0.302 0.54-0.841 1.233-1.582 2.029-1.228 1.312-2.33 2.171-3.197 2.51-0.499 0.176-0.977 0.279-1.349 0.279-0.441 0-0.905-0.133-1.221-0.358-0.315-0.226-0.587-0.643-0.738-1.058-0.048-0.174-0.081-0.406-0.081-0.624 0-0.262 0.043-0.57 0.127-0.922-0.013 2e-3 -0.026 2e-3 -0.039 2e-3 -0.225 0-0.505-0.243-0.615-0.416-0.042-0.106-0.083-0.271-0.083-0.384 0-0.172 0.118-0.412 0.221-0.554 0.908-1.126 1.55-1.981 2.061-2.736 9e-3 -0.147-6e-3 -0.189 0.09-0.412l-0.021 0.048c0.394-1.087 0.902-1.798 1.344-1.975l0.028-0.011h0.277zm-0.159 1c-0.109 0.085-0.196 0.324-0.55 1.328l-0.015 0.043-8e-3 0.011c-0.05 0.071-0.061-0.019-0.039-0.06l-0.94 1.737c-0.085 0.113-0.172 0.229-0.262 0.346l0.059 0.028-0.026 0.048 0.031-0.046 0.374 0.172c-0.588 1.289-0.855 2.173-0.855 2.753 0 0.156 5e-3 0.236 0.036 0.328 0.088 0.285 0.187 0.413 0.365 0.541 0.155 0.11 0.293 0.158 0.526 0.169-0.062-0.046-0.12-0.095-0.17-0.146-0.202-0.251-0.357-0.627-0.357-0.972 0-0.272 0.012-0.514 0.034-0.699 0.077-0.65 0.661-2.081 1.728-4.224 0.092-0.168 0.182-0.343 0.27-0.518 0.021-0.055 0.043-0.11 0.085-0.208 0.044-0.112 0.111-0.256 0.203-0.428 0.054-0.082 0.051-0.073 0.028-0.133-3e-3 0-0.011-5e-3 -0.034-0.017-0.076-0.041-0.14-0.053-0.324-0.053h-0.159zm2.641-3.229l8e-3 -0.091c-0.023 0.271-0.186 0.675-0.45 1.081-0.273 0.414-0.669 0.789-0.98 0.789-0.44 0-0.856-0.069-1.121-0.199-0.311-0.153-0.579-0.554-0.579-0.891 0-0.262 0.589-0.811 1.4-1.44l0.467-0.35c0.317-0.27 0.657-0.5 0.873-0.5 0.117 0 0.34 0.077 0.438 0.175 0.097 0.098 0.16 0.321 0.172 0.435l5e-3 0.042zm-0.99-0.05l-0.129 0.097c-0.526 0.407-0.797 0.609-0.919 0.663 0.13 0.047 0.309 0.069 0.614 0.069-0.042 0-0.062-4e-3 0.142-0.331 0.188-0.279 0.278-0.421 0.292-0.498zm18.391 4.258l0.124-0.496c-0.636 0.04-1.495 0.545-2.725 1.659-1.289 1.15-2.056 2.239-2.374 3.379-0.087 0.289-0.12 0.506-0.12 0.719 0 0.189 5e-3 0.259 0.084 0.349 0.127 0.248 0.267 0.281 0.626 0.281 0.435 0 0.875-0.054 1.384-0.174 1.153-0.324 2.05-0.762 2.798-1.36 0.767-0.596 1.561-1.424 2.425-2.525 0.08-0.09 0.231-0.215 0.349-0.256 0.125-0.043 0.356-0.022 0.481 7e-3 0.09 0.038 0.224 0.112 0.295 0.183 0.09 0.09 0.188 0.309 0.188 0.445 0 0.134-0.063 0.334-0.134 0.496l-0.021 0.046-0.032 0.045c-0.915 1.237-1.898 2.269-2.907 3.048-1.034 0.792-2.284 1.332-3.627 1.569-0.392 0.062-0.777 0.096-1.119 0.096-0.99 0-1.861-0.306-2.435-0.809-0.528-0.526-0.865-1.204-0.865-1.851 0-0.594 0.159-1.286 0.432-1.96 0.51-1.136 1.592-2.33 3.163-3.483 1.569-1.146 2.93-1.777 3.935-1.777 0.255 0 0.566 0.051 0.807 0.119 0.31 0.116 0.619 0.299 0.799 0.501 0.191 0.216 0.324 0.569 0.324 0.86 0 0.358-0.15 0.8-0.378 1.201-0.119 0.204-0.26 0.398-0.383 0.499-0.084 0.069-0.262 0.155-0.385 0.165-0.147 0.011-0.372-0.104-0.484-0.189-0.085-0.095-0.184-0.23-0.222-0.352-0.041-0.132-0.037-0.303-3e-3 -0.435zm-0.918-1.218c-0.671 0.22-1.489 0.685-2.501 1.432-1.497 1.087-2.41 2.072-2.834 3.067-0.247 0.592-0.352 1.084-0.352 1.57 0 0.433 0.132 0.746 0.552 1.126 0.063 0.063 0.129 0.12 0.2 0.171-0.141-0.242-0.242-0.58-0.242-0.887 0-0.293 0.059-0.649 0.16-1 0.388-1.286 1.301-2.606 2.666-3.842 0.858-0.767 1.656-1.326 2.351-1.637zm15.582-0.761c0.282 0 0.592 0.063 0.796 0.172 0.222 0.119 0.428 0.393 0.521 0.629l9e-3 0.023 5e-3 0.029c0.035 0.25-0.018 0.589-0.122 0.826-0.08 0.147-0.136 0.269-0.16 0.339-0.038 0.088-0.063 0.151-0.081 0.199l-9e-3 0.024-0.012 0.024c-0.096 0.189-0.189 0.37-0.283 0.545-1.05 2.107-1.585 3.379-1.628 3.889-0.018 0.149-0.026 0.333-0.026 0.581 0 0.176 6e-3 0.231 0.108 0.313 0.054 0.09 0.038 0.063 0.124 0.068 0.106 5e-3 0.19-0.012 0.382-0.122 0.452-0.237 1.08-0.726 1.931-1.501 0.85-0.763 1.531-1.503 2.052-2.227 0.083-0.092 0.246-0.223 0.374-0.26 0.137-0.038 0.368 5e-3 0.495 0.053 0.155 0.091 0.414 0.36 0.414 0.586 0 0.128-0.055 0.287-0.112 0.392-0.302 0.54-0.843 1.233-1.582 2.029-1.228 1.312-2.33 2.172-3.198 2.51-0.499 0.176-0.976 0.279-1.348 0.279-0.442 0-0.906-0.133-1.221-0.358-0.315-0.226-0.587-0.643-0.738-1.058-0.048-0.174-0.081-0.406-0.081-0.624 0-0.262 0.043-0.57 0.127-0.922-0.013 2e-3 -0.027 2e-3 -0.04 2e-3 -0.225 0-0.505-0.243-0.614-0.417-0.042-0.105-0.083-0.27-0.083-0.383 0-0.17 0.114-0.408 0.221-0.554 0.907-1.126 1.549-1.981 2.061-2.736 9e-3 -0.147-7e-3 -0.188 0.091-0.415l-0.022 0.052c0.393-1.088 0.902-1.799 1.344-1.976l0.028-0.011h0.277zm-0.159 1c-0.109 0.084-0.197 0.324-0.55 1.328l-0.016 0.045-8e-3 0.012c-0.05 0.067-0.06-0.024-0.038-0.063l-1.085 1.928c-0.038 0.051-0.077 0.102-0.117 0.154l0.438 0.203c-0.588 1.289-0.855 2.173-0.855 2.753 0 0.156 5e-3 0.236 0.036 0.328 0.088 0.286 0.187 0.413 0.365 0.541 0.155 0.11 0.293 0.158 0.526 0.169-0.062-0.046-0.119-0.095-0.17-0.145-0.203-0.253-0.357-0.629-0.357-0.973 0-0.272 0.012-0.514 0.034-0.699 0.077-0.65 0.661-2.081 1.729-4.224 0.091-0.169 0.176-0.335 0.269-0.519 0.021-0.055 0.042-0.108 0.084-0.206 0.044-0.114 0.111-0.258 0.205-0.431 0.054-0.08 0.049-0.07 0.027-0.131-2e-3 0-0.011-4e-3 -0.035-0.017-0.076-0.041-0.139-0.053-0.323-0.053h-0.159zm2.641-3.228l8e-3 -0.092c-0.023 0.271-0.187 0.676-0.45 1.081-0.273 0.415-0.67 0.789-0.98 0.789-0.44 0-0.856-0.069-1.121-0.199-0.311-0.153-0.579-0.554-0.579-0.891 0-0.262 0.589-0.811 1.4-1.44l0.467-0.35c0.317-0.27 0.656-0.5 0.873-0.5 0.116 0 0.339 0.077 0.436 0.174s0.161 0.32 0.174 0.436l5e-3 0.041zm-0.99-0.051l-0.129 0.097c-0.526 0.407-0.797 0.609-0.919 0.663 0.13 0.047 0.309 0.069 0.614 0.069-0.042 0-0.062-3e-3 0.142-0.331 0.187-0.279 0.278-0.422 0.292-0.498zm17.336 6.939c0.32-0.659 0.309-0.782 0.309-1.08 0-0.337-0.027-0.55-0.098-0.704-0.055-0.169-0.087-0.412-0.05-0.579 0.012-0.053 0.032-0.109 0.059-0.164-0.06-0.068-0.109-0.14-0.13-0.204-0.039-0.118-0.061-0.295-0.061-0.449v-6e-3c-0.015 4e-3 -0.035 6e-3 -0.06 6e-3 -0.508 0-1.153 0.469-2.141 1.616-0.989 1.149-1.552 2.222-1.735 3.363-0.031 0.186-0.044 0.376-0.044 0.611 0 0.184 0.05 0.358 0.195 0.643 0.101 0.197 0.15 0.217 0.495 0.217 0.357 0 0.707-0.14 1.192-0.521 0.448-0.33 0.832-0.724 1.19-1.225-0.077-0.396 8e-3 -0.846 0.209-1.148 0.126-0.141 0.331-0.298 0.508-0.349 0.174-0.05 0.104-0.023 0.162-0.027zm1.52-3.155c0.295 0.105 0.622 0.365 0.756 0.667 0.119 0.268 0.183 0.665 0.183 1.078 0 0.849-0.473 1.893-1.317 3.095 8e-3 0.021 1e-3 -5e-3 0.054 0.045 0.053 0.051 0.057 0.05 0.233 0.05 0.356 0 0.934-0.414 1.919-1.456 0.48-0.551 0.766-0.893 0.875-1.046 0.084-0.116 0.219-0.251 0.331-0.314 0.148-0.083 0.461-0.101 0.621-0.02 0.066 0.033 0.152 0.087 0.204 0.131 0.078 0.067 0.21 0.283 0.21 0.435 0 0.328-0.435 0.975-1.117 1.781-1.118 1.355-2.251 2.139-3.213 2.139-0.67 0-0.85-0.176-1.173-0.457-0.246 0.25-0.386 0.391-0.745 0.729-0.8 0.656-1.774 1.038-2.762 1.038-0.569 0-1.102-0.155-1.518-0.432-0.75-0.501-1.222-1.415-1.222-2.528 0-1.179 0.424-2.433 1.199-3.631 0.454-0.7 1.003-1.34 1.601-1.865 0.98-0.846 2.015-1.334 2.94-1.334 0.245 0 0.523 0.047 0.748 0.116 0.336 0.12 0.674 0.329 0.864 0.569 0.195 0.245 0.318 0.629 0.318 0.965 0 0.08-5e-3 0.162-0.014 0.243 8e-3 0 0.017 1e-3 0.025 2e-3zm-0.355 2.876c0.201-0.437 0.294-0.808 0.294-1.131 0-0.334-0.03-0.521-0.097-0.672-0.053-0.119 5e-3 -0.116-0.073-0.105-0.106-0.037-0.092-0.049-0.136 0.041-4e-3 2e-3 -7e-3 3e-3 -0.01 4e-3 1e-3 2e-3 2e-3 3e-3 3e-3 5e-3 0.101 0.271 0.163 0.648 0.163 1.057 0 0.223-0.051 0.495-0.144 0.801zm-0.837 1.386l-0.161-0.108c-0.028-0.018-0.044-0.034-0.052-0.046 1e-3 0.011 1e-3 0.026-3e-3 0.046-0.099 0.066-0.095 0.086-0.053 0.203l0.081 0.163 0.094-0.129c0.032-0.043 0.063-0.086 0.094-0.129zm-5.12 2.069c-0.101-0.269-0.159-0.539-0.159-0.766 0-0.271 0.021-0.541 0.056-0.769 0.231-1.285 0.9-2.62 1.965-3.857 0.785-0.912 1.553-1.546 2.222-1.817-0.619 0.076-1.248 0.404-1.993 1.069-0.548 0.474-1.007 1.009-1.42 1.655-0.718 1.082-1.04 2.068-1.04 3.089 0 0.66 0.098 1.097 0.368 1.396zm30.845-1.226c-0.741 0.801-1.432 1.44-2.034 1.885-0.815 0.575-1.774 0.905-2.733 0.905-0.25 0-0.604-0.13-0.917-0.301-0.335-0.22-0.641-0.586-0.761-0.971-0.103-0.333-0.162-0.698-0.162-1.018 0-0.134 4e-3 -0.269 0.011-0.404-0.319 0.417-0.67 0.822-1.046 1.206-0.732 0.72-1.575 1.158-2.355 1.158-0.375 0-0.856-0.116-1.307-0.295-0.858-0.438-1.413-1.283-1.413-2.305 0-1.18 0.432-2.447 1.22-3.671 0.765-1.184 1.365-1.905 1.68-2.065l0.014-8e-3 0.04-0.01c0.309-0.079 0.639-0.126 0.926-0.126 0.304 0 0.648 0.075 0.951 0.194 0.109 0.047 0.266 0.142 0.344 0.236 0.097 0.117 0.163 0.389 0.131 0.538-0.045 0.207-0.245 0.427-0.442 0.583-1.25 1.136-2.095 2.337-2.606 3.714-0.197 0.527-0.278 0.911-0.278 1.245 0 0.286-0.039 0.319 0.053 0.309 0.138 0.089 0.202 0.101 0.317 0.101 0.333 0 0.789-0.23 1.526-0.829 0.737-0.591 1.754-1.84 3.1-3.801 0.181-0.271 0.496-0.797 0.961-1.6 0.467-0.813 0.75-1.302 0.846-1.46l0.148-0.244 0.279 4e-3c0.349 5e-3 0.782 0.087 1.215 0.238 0.248 0.087 0.513 0.248 0.638 0.415 0.077 0.104 0.149 0.302 0.153 0.433 3e-3 0.125-0.064 0.321-0.118 0.432-0.897 1.488-1.519 2.575-1.873 3.271-0.35 0.669-0.57 1.42-0.689 2.334-0.018 0.148-0.026 0.329-0.026 0.577 0 0.179-3e-3 0.225 0.09 0.305 0.064 0.094 0.056 0.069 0.152 0.073 0.115 5e-3 0.204-0.015 0.4-0.128 0.467-0.251 1.096-0.741 1.934-1.502 0.842-0.755 1.513-1.494 2.021-2.217 0.085-0.094 0.252-0.226 0.382-0.261 0.135-0.037 0.356 2e-3 0.482 0.047 0.077 0.037 0.176 0.092 0.238 0.146 0.089 0.078 0.211 0.3 0.211 0.447 0 0.14-0.088 0.34-0.161 0.451l0.036-0.055c-0.302 0.539-0.84 1.23-1.578 2.024zm-4.683 1.789c-0.062-0.043-0.119-0.09-0.17-0.138-0.195-0.251-0.354-0.64-0.354-0.981 0-0.272 0.012-0.514 0.034-0.699 0.135-0.991 0.407-1.913 0.791-2.67 0.351-0.687 0.95-1.736 1.792-3.138-0.01-3e-3 -0.021-7e-3 -0.032-0.011-0.367-0.129-0.359-0.169-0.61-0.164-0.143 0.246-0.215 0.369-0.681 1.181-0.234 0.404-0.435 0.745-0.601 1.022l0.103-0.08-0.67 1.691c-0.361 0.91-0.526 1.779-0.526 2.698 0 0.24 0.035 0.455 0.118 0.722 0.066 0.215 0.12 0.309 0.319 0.409 0.233 0.135 0.319 0.159 0.403 0.159 0.028 0 0.056 0 0.084-1e-3zm-7.027-1.687c0.048-0.362 0.157-0.775 0.314-1.205 0.538-1.407 1.446-2.741 2.666-3.914-0.035-2e-3 -0.07-3e-3 -0.107-3e-3 -0.219 0-0.41 0.025-0.651 0.088-0.132 0.082-0.428 0.513-1.169 1.663-0.732 1.11-1.06 2.109-1.06 3.129 0 0.085 2e-3 0.166 7e-3 0.242zm22.512 2.153c-0.042 0.045-0.066 0.075-0.081 0.096 5e-3 0 0.011-1e-3 0.021-1e-3 0.144 0 0.257-0.015 0.411-0.06 0.741-0.214 1.415-0.634 2.134-1.322 0.703-0.653 0.975-1.205 0.975-1.838 0-0.234-0.247-0.46-1.102-0.897-0.438-0.229-0.689-0.365-0.772-0.425-0.552-0.37-0.458-0.341-0.639-0.526-0.267 0.458-0.302 0.477-0.886 1.322l-0.023 0.034-0.018 0.019c-0.109 0.11-0.289 0.242-0.433 0.281-0.168 0.045-0.47-0.049-0.622-0.13-0.114-0.115-0.26-0.344-0.27-0.512-8e-3 -0.15 0.087-0.39 0.16-0.52 0.746-1.024 1.197-1.809 1.43-2.472 0.202-1.131 1.035-2.196 2.468-3.073 1.41-0.843 2.779-1.301 3.977-1.301 0.775 0 1.441 0.198 1.831 0.506 0.337 0.314 0.599 0.748 0.599 1.114 0 0.301-0.095 0.682-0.252 1.04-0.174 0.398-0.568 0.804-1.038 1.121-0.13 0.068-0.375 0.141-0.53 0.108-0.156-0.034-0.35-0.202-0.44-0.318l-0.042-0.054-9e-3 -0.05c-0.032-0.177-0.02-0.449 0.058-0.598 0.062-0.121 0.172-0.257 0.293-0.376 0.147-0.134 0.207-0.268 0.246-0.532 0.012-0.017 0.021-0.03 0.028-0.041h-0.154c-0.655 0-1.456 0.237-2.509 0.768-1.046 0.509-1.82 1.15-2.388 1.962-0.21 0.248-0.263 0.413-0.263 0.65 0 0.174 0.059 0.257 0.44 0.453 0.179 0.109 0.486 0.283 0.929 0.528 0.449 0.241 0.776 0.424 0.971 0.542 0.211 0.13 0.475 0.337 0.749 0.59 0.308 0.284 0.516 0.664 0.577 0.978 0.067 0.693-0.248 1.501-0.906 2.245-0.95 1.027-2.385 1.782-4.177 2.191-0.422 0.098-0.874 0.153-1.303 0.153-0.517 0-0.995-0.298-1.257-0.684-0.085-0.166-0.153-0.399-0.153-0.606 0-0.286 0.271-0.735 0.596-1.124 0.327-0.316 0.85-0.641 1.495-0.924l0.057-0.025 0.023-3e-3c0.164-0.014 0.466 0.078 0.613 0.162 0.107 0.165 0.172 0.466 0.145 0.66-0.118 0.189-0.352 0.397-0.576 0.495-0.101 0.026-0.208 0.149-0.383 0.394zm2.957-0.365c0.478-0.281 0.883-0.61 1.222-0.995 0.568-0.602 0.767-1.011 0.658-1.433 0.017-0.098-0.054-0.189-0.266-0.385-0.045-0.041-0.088-0.08-0.128-0.116 0.011 0.057 0.017 0.113 0.017 0.169 0 0.861-0.482 1.775-1.284 2.561-0.073 0.068-0.146 0.134-0.219 0.199zm-1.741-6.224l0.022 0.073c0.082-0.272 0.223-0.544 0.399-0.779 0.658-0.908 1.59-1.667 2.731-2.238 0.788-0.391 1.522-0.66 2.165-0.788-0.985 0.043-2.038 0.408-3.265 1.154-1.301 0.763-1.93 1.503-2.002 2.403l-3e-3 0.045-0.021 0.058c-8e-3 0.024-0.017 0.048-0.026 0.072z" fill="none"/>
<path transform="matrix(1.0551 0 0 1.6925 115.81 74.156)" d="m117.42 159.16c0.846-0.755 1.749-1.415 2.671-1.949 0.914-0.531 1.687-0.884 2.25-1.033 0.555-0.138 1.13-0.215 1.662-0.215 0.591 0 0.813 0.107 1.198 0.292 1.292-2.994 2.35-4.763 3.601-6.282 1.274-1.547 2.673-2.41 3.971-2.41 0.878 0 1.624 0.37 2.018 0.921 0.155 0.268 0.272 0.59 0.272 0.839 0 0.547-0.241 1.263-0.663 2.023-0.419 0.754-1.08 1.597-1.939 2.476-0.854 0.874-2.084 1.954-3.665 3.221-1.566 1.259-2.217 1.788-2.5 2.025-0.571 1.324-1.002 2.553-1.329 3.82-0.329 1.273-0.484 2.175-0.484 2.765 0 0.58 0.091 0.998 0.282 1.297 0.048 0.155 0.046 0.161 0.162 0.154 0.133 0.044 0.127 0.031 0.201-0.015 0.142-0.089 0.25-0.172 0.304-0.229 0.107-0.088 0.269-0.196 0.407-0.274 0.196-0.084 0.519-0.092 0.735-0.031l0.038 0.011 0.022 0.028c0.116 0.147 0.243 0.409 0.229 0.555-0.01 0.101-0.055 0.244-0.102 0.354l-0.024 0.057-0.041 0.052c-0.155 0.197-0.315 0.379-0.459 0.525l-0.039 0.038-0.038 0.024c-0.37 0.232-0.858 0.384-1.327 0.384-0.407 0-0.734-0.013-0.884-0.027-0.534-0.109-1.052-0.403-1.334-0.816-0.272-0.399-0.422-1-0.422-1.637 0-1.156 0.164-2.266 0.473-3.259 0.409-1.314 0.196-0.624 0.292-0.917-2.201 2.29-3.644 3.526-5.055 3.526-0.367 0-0.804-0.127-1.198-0.325-0.389-0.206-0.771-0.533-1.055-0.899-0.275-0.394-0.457-0.892-0.457-1.346 0-0.43 0.115-0.896 0.301-1.29 0.403-0.826 1.063-1.661 1.926-2.433zm-1.026 2.869c-0.148 0.286-0.201 0.538-0.201 0.854 0 0.261 0.046 0.449 0.202 0.672-1e-3 -0.037-2e-3 -0.074-2e-3 -0.112 0-0.46 0.309-1.164 0.82-1.972 0.518-0.797 1.144-1.546 1.818-2.182 0.611-0.541 1.27-1.025 1.953-1.436-0.125 0.069-0.254 0.143-0.389 0.222-0.878 0.506-1.701 1.106-2.509 1.831-0.803 0.708-1.349 1.39-1.692 2.123zm8.334-2.102c-0.336 0.849-0.703 1.915-1.108 3.215-0.291 0.913-0.427 1.877-0.427 2.961 0 0.516 0.074 0.818 0.248 1.073 0.14 0.205 0.272 0.315 0.531 0.37-0.042-0.054-0.079-0.112-0.111-0.17-0.249-0.447-0.378-1.037-0.378-1.723 0-0.676 0.179-1.702 0.516-3.015 0.339-1.307 0.819-2.677 1.425-4.074l0.045-0.103 0.084-0.073c0.021-0.019 0.053-0.046 0.095-0.081l0.619-1.37c1.684-3.721 3.618-6.441 5.723-8.062 0.144-0.107 0.29-0.204 0.433-0.288-0.911 0.127-1.809 0.759-2.849 2.021-1.195 1.451-2.413 3.616-3.682 6.563l-0.259 0.602-0.017-0.014-0.365 0.889-0.029 0.031zm-0.332-1.829l0.135-0.331c-0.135-0.01 0.026-0.014-0.498-0.014-0.485 0-1.094 0.188-1.943 0.625-0.859 0.444-1.635 0.982-2.39 1.654-0.63 0.59-1.165 1.234-1.647 1.983-0.475 0.738-0.66 1.168-0.66 1.428 0 0.297 0.023 0.423 0.081 0.524 2e-3 2e-3 3e-3 4e-3 4e-3 6e-3h5e-3c0.276 0 0.716-0.233 1.475-0.839 2.061-1.689 3.838-3.338 5.438-5.036zm8.575-7.969c0.215-0.381 0.302-0.637 0.311-0.857-0.153 0.03-0.353 0.14-0.686 0.399-2.001 1.513-2.926 2.265-4.562 5.903 0.695-0.558 0.837-0.636 2.148-1.927 1.305-1.286 2.221-2.436 2.789-3.518zm10.201 5.864c0.58 0 1.149 0.186 1.48 0.506 0.333 0.322 0.53 0.886 0.53 1.454 0 0.581-0.202 1.12-0.514 1.522-0.518 0.749-1.36 1.43-2.456 1.967-1.08 0.529-2.057 0.835-2.842 0.9-0.182 8e-3 -0.424-0.019-0.57-0.096-0.069-0.036-0.134-0.098-0.19-0.171-0.144 0.279-0.257 0.557-0.34 0.836-0.085 0.265-0.118 0.488-0.118 0.742 0 0.184 0.037 0.29 0.237 0.481 0.139 0.193 0.328 0.229 0.753 0.229 0.504 0 1.053-0.122 1.742-0.403 2.045-0.824 3.574-2.06 4.662-3.742 0.098-0.116 0.283-0.271 0.434-0.309 0.185-0.048 0.415 0.048 0.57 0.143 0.15 0.105 0.312 0.323 0.312 0.531 0 0.146-0.075 0.333-0.151 0.457-0.585 0.967-1.345 1.858-2.234 2.613-1.722 1.459-3.501 2.25-5.175 2.25-1.439 0-2.588-0.536-3.237-1.434-0.24-0.386-0.393-0.908-0.393-1.426 0-0.502 0.151-1.142 0.402-1.79 0.512-1.136 1.593-2.33 3.163-3.483 1.57-1.146 2.93-1.777 3.935-1.777zm-2.617 4.4c1.215-0.652 2.052-1.281 2.59-1.946 0.19-0.246 0.25-0.408 0.256-0.612-0.165 0.013-0.383 0.087-0.717 0.261-0.833 0.384-1.681 1.044-2.62 2.032-0.256 0.266-0.485 0.526-0.688 0.782 0.313-0.077 0.693-0.246 1.179-0.517zm1.854-3.274c-0.685 0.208-1.527 0.68-2.581 1.457-1.496 1.087-2.408 2.071-2.833 3.066-0.227 0.574-0.323 1.009-0.323 1.401 0 0.388 0.052 0.633 0.226 0.873 0.136 0.226 0.303 0.408 0.506 0.551-0.154-0.261-0.252-0.549-0.252-0.814 0-0.332 0.061-0.703 0.162-1.038 0.329-1.028 1.024-2.12 2.026-3.177 0.995-1.038 1.988-1.802 2.913-2.244 0.052-0.026 0.104-0.051 0.156-0.075zm13.704 4.125l9e-3 -0.025c0.034-0.101 0.07-0.208 0.109-0.32l0.045-0.131 0.017-0.014 0.36-0.983c0.537-1.461 1.376-3.225 2.503-5.252 1.423-2.54 2.935-4.445 4.471-5.641 0.138-0.105 0.281-0.199 0.423-0.279-0.519 0.093-1.005 0.369-1.542 0.896-0.383 0.344-0.662 0.62-0.846 0.843l-0.863 1.091c-0.989 1.313-2.09 3.255-3.334 5.878-1.242 2.62-1.877 4.487-1.942 5.728v0.148c0 0.613 0.108 0.935 0.382 1.202 0.124 0.121 0.26 0.21 0.431 0.271-0.061-0.062-0.117-0.128-0.166-0.196-0.215-0.365-0.357-0.829-0.357-1.257 0-0.376 0.011-0.689 0.032-0.917 0.02-0.21 0.114-0.568 0.27-1.043zm8.497-11.112c0.204-0.378 0.273-0.581 0.273-0.719 0-0.045 1e-3 -0.072 1e-3 -0.089-0.154 8e-3 -0.326 0.09-0.645 0.344-1.449 1.11-2.832 2.865-4.209 5.339-1.113 1.999-1.18 1.901-1.698 3.319 0.846-0.781 1.15-1.027 2.732-2.987 1.581-1.964 2.754-3.685 3.546-5.207zm-7.48 11.226c-0.185 0.54-0.273 0.854-0.289 1.022-0.019 0.198-0.028 0.465-0.028 0.823 0 0.292 0.046 0.489 0.203 0.724 0.083 0.176 0.104 0.165 0.251 0.175 0.177 0.012 0.372-0.048 0.694-0.242 0.524-0.27 1.178-0.777 2.013-1.555 0.845-0.778 1.465-1.45 1.913-2.079 0.132-0.143 0.397-0.313 0.586-0.313 0.097 0 0.261 0.037 0.353 0.09 0.102 0.059 0.235 0.219 0.275 0.326 0.06 0.16 0.038 0.42-9e-3 0.596l-0.012 0.049-0.031 0.053c-0.303 0.535-0.861 1.232-1.628 2.035-0.771 0.791-1.49 1.438-2.12 1.913-0.682 0.493-1.448 0.788-2.148 0.788-0.787 0-1.513-0.238-1.947-0.662-0.436-0.426-0.683-1.144-0.683-1.918 0-0.053 1e-3 -0.135 1e-3 -0.188 0.085-1.373 0.773-3.442 2.037-6.116 1.262-2.657 2.425-4.699 3.45-6.066l0.878-1.11c0.215-0.257 0.536-0.579 0.939-0.941 0.814-0.759 1.747-1.199 2.645-1.199 0.896 0 1.653 0.397 2.047 0.987 0.12 0.241 0.203 0.606 0.203 0.973 0 0.395-0.192 0.981-0.486 1.589-1.951 3.389-4.988 6.797-9.107 10.246zm17.172-4.975c0.283 0 0.593 0.063 0.796 0.172 0.224 0.119 0.441 0.443 0.534 0.678 0.036 0.254-0.016 0.591-0.12 0.827-0.08 0.148-0.135 0.269-0.161 0.341-0.038 0.088-0.063 0.151-0.081 0.199l-9e-3 0.023-0.011 0.023c-0.095 0.19-0.189 0.373-0.284 0.548-1.051 2.106-1.585 3.378-1.628 3.888-0.018 0.149-0.026 0.333-0.026 0.581 0 0.175 6e-3 0.229 0.108 0.313 0.054 0.09 0.038 0.063 0.124 0.068 0.107 5e-3 0.19-0.012 0.383-0.122 0.451-0.237 1.08-0.727 1.931-1.501 0.85-0.763 1.531-1.505 2.053-2.229 0.083-0.092 0.245-0.222 0.373-0.258 0.136-0.038 0.366 4e-3 0.493 0.052 0.158 0.095 0.415 0.363 0.415 0.587 0 0.123-0.051 0.28-0.112 0.392-0.302 0.54-0.841 1.233-1.582 2.029-1.228 1.312-2.33 2.171-3.197 2.51-0.499 0.176-0.977 0.279-1.349 0.279-0.441 0-0.905-0.133-1.221-0.358-0.315-0.226-0.587-0.643-0.738-1.058-0.048-0.174-0.081-0.406-0.081-0.624 0-0.262 0.043-0.57 0.127-0.922-0.013 2e-3 -0.026 2e-3 -0.039 2e-3 -0.225 0-0.505-0.243-0.615-0.416-0.042-0.106-0.083-0.271-0.083-0.384 0-0.172 0.118-0.412 0.221-0.554 0.908-1.126 1.55-1.981 2.061-2.736 9e-3 -0.147-6e-3 -0.189 0.09-0.412l-0.021 0.048c0.394-1.087 0.902-1.798 1.344-1.975l0.028-0.011h0.277zm-0.159 1c-0.109 0.085-0.196 0.324-0.55 1.328l-0.015 0.043-8e-3 0.011c-0.05 0.071-0.061-0.019-0.039-0.06l-0.94 1.737c-0.085 0.113-0.172 0.229-0.262 0.346l0.059 0.028-0.026 0.048 0.031-0.046 0.374 0.172c-0.588 1.289-0.855 2.173-0.855 2.753 0 0.156 5e-3 0.236 0.036 0.328 0.088 0.285 0.187 0.413 0.365 0.541 0.155 0.11 0.293 0.158 0.526 0.169-0.062-0.046-0.12-0.095-0.17-0.146-0.202-0.251-0.357-0.627-0.357-0.972 0-0.272 0.012-0.514 0.034-0.699 0.077-0.65 0.661-2.081 1.728-4.224 0.092-0.168 0.182-0.343 0.27-0.518 0.021-0.055 0.043-0.11 0.085-0.208 0.044-0.112 0.111-0.256 0.203-0.428 0.054-0.082 0.051-0.073 0.028-0.133-3e-3 0-0.011-5e-3 -0.034-0.017-0.076-0.041-0.14-0.053-0.324-0.053h-0.159zm2.641-3.229l8e-3 -0.091c-0.023 0.271-0.186 0.675-0.45 1.081-0.273 0.414-0.669 0.789-0.98 0.789-0.44 0-0.856-0.069-1.121-0.199-0.311-0.153-0.579-0.554-0.579-0.891 0-0.262 0.589-0.811 1.4-1.44l0.467-0.35c0.317-0.27 0.657-0.5 0.873-0.5 0.117 0 0.34 0.077 0.438 0.175 0.097 0.098 0.16 0.321 0.172 0.435l5e-3 0.042zm-0.99-0.05l-0.129 0.097c-0.526 0.407-0.797 0.609-0.919 0.663 0.13 0.047 0.309 0.069 0.614 0.069-0.042 0-0.062-4e-3 0.142-0.331 0.188-0.279 0.278-0.421 0.292-0.498zm18.391 4.258l0.124-0.496c-0.636 0.04-1.495 0.545-2.725 1.659-1.289 1.15-2.056 2.239-2.374 3.379-0.087 0.289-0.12 0.506-0.12 0.719 0 0.189 5e-3 0.259 0.084 0.349 0.127 0.248 0.267 0.281 0.626 0.281 0.435 0 0.875-0.054 1.384-0.174 1.153-0.324 2.05-0.762 2.798-1.36 0.767-0.596 1.561-1.424 2.425-2.525 0.08-0.09 0.231-0.215 0.349-0.256 0.125-0.043 0.356-0.022 0.481 7e-3 0.09 0.038 0.224 0.112 0.295 0.183 0.09 0.09 0.188 0.309 0.188 0.445 0 0.134-0.063 0.334-0.134 0.496l-0.021 0.046-0.032 0.045c-0.915 1.237-1.898 2.269-2.907 3.048-1.034 0.792-2.284 1.332-3.627 1.569-0.392 0.062-0.777 0.096-1.119 0.096-0.99 0-1.861-0.306-2.435-0.809-0.528-0.526-0.865-1.204-0.865-1.851 0-0.594 0.159-1.286 0.432-1.96 0.51-1.136 1.592-2.33 3.163-3.483 1.569-1.146 2.93-1.777 3.935-1.777 0.255 0 0.566 0.051 0.807 0.119 0.31 0.116 0.619 0.299 0.799 0.501 0.191 0.216 0.324 0.569 0.324 0.86 0 0.358-0.15 0.8-0.378 1.201-0.119 0.204-0.26 0.398-0.383 0.499-0.084 0.069-0.262 0.155-0.385 0.165-0.147 0.011-0.372-0.104-0.484-0.189-0.085-0.095-0.184-0.23-0.222-0.352-0.041-0.132-0.037-0.303-3e-3 -0.435zm-0.918-1.218c-0.671 0.22-1.489 0.685-2.501 1.432-1.497 1.087-2.41 2.072-2.834 3.067-0.247 0.592-0.352 1.084-0.352 1.57 0 0.433 0.132 0.746 0.552 1.126 0.063 0.063 0.129 0.12 0.2 0.171-0.141-0.242-0.242-0.58-0.242-0.887 0-0.293 0.059-0.649 0.16-1 0.388-1.286 1.301-2.606 2.666-3.842 0.858-0.767 1.656-1.326 2.351-1.637zm15.582-0.761c0.282 0 0.592 0.063 0.796 0.172 0.222 0.119 0.428 0.393 0.521 0.629l9e-3 0.023 5e-3 0.029c0.035 0.25-0.018 0.589-0.122 0.826-0.08 0.147-0.136 0.269-0.16 0.339-0.038 0.088-0.063 0.151-0.081 0.199l-9e-3 0.024-0.012 0.024c-0.096 0.189-0.189 0.37-0.283 0.545-1.05 2.107-1.585 3.379-1.628 3.889-0.018 0.149-0.026 0.333-0.026 0.581 0 0.176 6e-3 0.231 0.108 0.313 0.054 0.09 0.038 0.063 0.124 0.068 0.106 5e-3 0.19-0.012 0.382-0.122 0.452-0.237 1.08-0.726 1.931-1.501 0.85-0.763 1.531-1.503 2.052-2.227 0.083-0.092 0.246-0.223 0.374-0.26 0.137-0.038 0.368 5e-3 0.495 0.053 0.155 0.091 0.414 0.36 0.414 0.586 0 0.128-0.055 0.287-0.112 0.392-0.302 0.54-0.843 1.233-1.582 2.029-1.228 1.312-2.33 2.172-3.198 2.51-0.499 0.176-0.976 0.279-1.348 0.279-0.442 0-0.906-0.133-1.221-0.358-0.315-0.226-0.587-0.643-0.738-1.058-0.048-0.174-0.081-0.406-0.081-0.624 0-0.262 0.043-0.57 0.127-0.922-0.013 2e-3 -0.027 2e-3 -0.04 2e-3 -0.225 0-0.505-0.243-0.614-0.417-0.042-0.105-0.083-0.27-0.083-0.383 0-0.17 0.114-0.408 0.221-0.554 0.907-1.126 1.549-1.981 2.061-2.736 9e-3 -0.147-7e-3 -0.188 0.091-0.415l-0.022 0.052c0.393-1.088 0.902-1.799 1.344-1.976l0.028-0.011h0.277zm-0.159 1c-0.109 0.084-0.197 0.324-0.55 1.328l-0.016 0.045-8e-3 0.012c-0.05 0.067-0.06-0.024-0.038-0.063l-1.085 1.928c-0.038 0.051-0.077 0.102-0.117 0.154l0.438 0.203c-0.588 1.289-0.855 2.173-0.855 2.753 0 0.156 5e-3 0.236 0.036 0.328 0.088 0.286 0.187 0.413 0.365 0.541 0.155 0.11 0.293 0.158 0.526 0.169-0.062-0.046-0.119-0.095-0.17-0.145-0.203-0.253-0.357-0.629-0.357-0.973 0-0.272 0.012-0.514 0.034-0.699 0.077-0.65 0.661-2.081 1.729-4.224 0.091-0.169 0.176-0.335 0.269-0.519 0.021-0.055 0.042-0.108 0.084-0.206 0.044-0.114 0.111-0.258 0.205-0.431 0.054-0.08 0.049-0.07 0.027-0.131-2e-3 0-0.011-4e-3 -0.035-0.017-0.076-0.041-0.139-0.053-0.323-0.053h-0.159zm2.641-3.228l8e-3 -0.092c-0.023 0.271-0.187 0.676-0.45 1.081-0.273 0.415-0.67 0.789-0.98 0.789-0.44 0-0.856-0.069-1.121-0.199-0.311-0.153-0.579-0.554-0.579-0.891 0-0.262 0.589-0.811 1.4-1.44l0.467-0.35c0.317-0.27 0.656-0.5 0.873-0.5 0.116 0 0.339 0.077 0.436 0.174s0.161 0.32 0.174 0.436l5e-3 0.041zm-0.99-0.051l-0.129 0.097c-0.526 0.407-0.797 0.609-0.919 0.663 0.13 0.047 0.309 0.069 0.614 0.069-0.042 0-0.062-3e-3 0.142-0.331 0.187-0.279 0.278-0.422 0.292-0.498zm17.336 6.939c0.32-0.659 0.309-0.782 0.309-1.08 0-0.337-0.027-0.55-0.098-0.704-0.055-0.169-0.087-0.412-0.05-0.579 0.012-0.053 0.032-0.109 0.059-0.164-0.06-0.068-0.109-0.14-0.13-0.204-0.039-0.118-0.061-0.295-0.061-0.449v-6e-3c-0.015 4e-3 -0.035 6e-3 -0.06 6e-3 -0.508 0-1.153 0.469-2.141 1.616-0.989 1.149-1.552 2.222-1.735 3.363-0.031 0.186-0.044 0.376-0.044 0.611 0 0.184 0.05 0.358 0.195 0.643 0.101 0.197 0.15 0.217 0.495 0.217 0.357 0 0.707-0.14 1.192-0.521 0.448-0.33 0.832-0.724 1.19-1.225-0.077-0.396 8e-3 -0.846 0.209-1.148 0.126-0.141 0.331-0.298 0.508-0.349 0.174-0.05 0.104-0.023 0.162-0.027zm1.52-3.155c0.295 0.105 0.622 0.365 0.756 0.667 0.119 0.268 0.183 0.665 0.183 1.078 0 0.849-0.473 1.893-1.317 3.095 8e-3 0.021 1e-3 -5e-3 0.054 0.045 0.053 0.051 0.057 0.05 0.233 0.05 0.356 0 0.934-0.414 1.919-1.456 0.48-0.551 0.766-0.893 0.875-1.046 0.084-0.116 0.219-0.251 0.331-0.314 0.148-0.083 0.461-0.101 0.621-0.02 0.066 0.033 0.152 0.087 0.204 0.131 0.078 0.067 0.21 0.283 0.21 0.435 0 0.328-0.435 0.975-1.117 1.781-1.118 1.355-2.251 2.139-3.213 2.139-0.67 0-0.85-0.176-1.173-0.457-0.246 0.25-0.386 0.391-0.745 0.729-0.8 0.656-1.774 1.038-2.762 1.038-0.569 0-1.102-0.155-1.518-0.432-0.75-0.501-1.222-1.415-1.222-2.528 0-1.179 0.424-2.433 1.199-3.631 0.454-0.7 1.003-1.34 1.601-1.865 0.98-0.846 2.015-1.334 2.94-1.334 0.245 0 0.523 0.047 0.748 0.116 0.336 0.12 0.674 0.329 0.864 0.569 0.195 0.245 0.318 0.629 0.318 0.965 0 0.08-5e-3 0.162-0.014 0.243 8e-3 0 0.017 1e-3 0.025 2e-3zm-0.355 2.876c0.201-0.437 0.294-0.808 0.294-1.131 0-0.334-0.03-0.521-0.097-0.672-0.053-0.119 5e-3 -0.116-0.073-0.105-0.106-0.037-0.092-0.049-0.136 0.041-4e-3 2e-3 -7e-3 3e-3 -0.01 4e-3 1e-3 2e-3 2e-3 3e-3 3e-3 5e-3 0.101 0.271 0.163 0.648 0.163 1.057 0 0.223-0.051 0.495-0.144 0.801zm-0.837 1.386l-0.161-0.108c-0.028-0.018-0.044-0.034-0.052-0.046 1e-3 0.011 1e-3 0.026-3e-3 0.046-0.099 0.066-0.095 0.086-0.053 0.203l0.081 0.163 0.094-0.129c0.032-0.043 0.063-0.086 0.094-0.129zm-5.12 2.069c-0.101-0.269-0.159-0.539-0.159-0.766 0-0.271 0.021-0.541 0.056-0.769 0.231-1.285 0.9-2.62 1.965-3.857 0.785-0.912 1.553-1.546 2.222-1.817-0.619 0.076-1.248 0.404-1.993 1.069-0.548 0.474-1.007 1.009-1.42 1.655-0.718 1.082-1.04 2.068-1.04 3.089 0 0.66 0.098 1.097 0.368 1.396zm30.845-1.226c-0.741 0.801-1.432 1.44-2.034 1.885-0.815 0.575-1.774 0.905-2.733 0.905-0.25 0-0.604-0.13-0.917-0.301-0.335-0.22-0.641-0.586-0.761-0.971-0.103-0.333-0.162-0.698-0.162-1.018 0-0.134 4e-3 -0.269 0.011-0.404-0.319 0.417-0.67 0.822-1.046 1.206-0.732 0.72-1.575 1.158-2.355 1.158-0.375 0-0.856-0.116-1.307-0.295-0.858-0.438-1.413-1.283-1.413-2.305 0-1.18 0.432-2.447 1.22-3.671 0.765-1.184 1.365-1.905 1.68-2.065l0.014-8e-3 0.04-0.01c0.309-0.079 0.639-0.126 0.926-0.126 0.304 0 0.648 0.075 0.951 0.194 0.109 0.047 0.266 0.142 0.344 0.236 0.097 0.117 0.163 0.389 0.131 0.538-0.045 0.207-0.245 0.427-0.442 0.583-1.25 1.136-2.095 2.337-2.606 3.714-0.197 0.527-0.278 0.911-0.278 1.245 0 0.286-0.039 0.319 0.053 0.309 0.138 0.089 0.202 0.101 0.317 0.101 0.333 0 0.789-0.23 1.526-0.829 0.737-0.591 1.754-1.84 3.1-3.801 0.181-0.271 0.496-0.797 0.961-1.6 0.467-0.813 0.75-1.302 0.846-1.46l0.148-0.244 0.279 4e-3c0.349 5e-3 0.782 0.087 1.215 0.238 0.248 0.087 0.513 0.248 0.638 0.415 0.077 0.104 0.149 0.302 0.153 0.433 3e-3 0.125-0.064 0.321-0.118 0.432-0.897 1.488-1.519 2.575-1.873 3.271-0.35 0.669-0.57 1.42-0.689 2.334-0.018 0.148-0.026 0.329-0.026 0.577 0 0.179-3e-3 0.225 0.09 0.305 0.064 0.094 0.056 0.069 0.152 0.073 0.115 5e-3 0.204-0.015 0.4-0.128 0.467-0.251 1.096-0.741 1.934-1.502 0.842-0.755 1.513-1.494 2.021-2.217 0.085-0.094 0.252-0.226 0.382-0.261 0.135-0.037 0.356 2e-3 0.482 0.047 0.077 0.037 0.176 0.092 0.238 0.146 0.089 0.078 0.211 0.3 0.211 0.447 0 0.14-0.088 0.34-0.161 0.451l0.036-0.055c-0.302 0.539-0.84 1.23-1.578 2.024zm-4.683 1.789c-0.062-0.043-0.119-0.09-0.17-0.138-0.195-0.251-0.354-0.64-0.354-0.981 0-0.272 0.012-0.514 0.034-0.699 0.135-0.991 0.407-1.913 0.791-2.67 0.351-0.687 0.95-1.736 1.792-3.138-0.01-3e-3 -0.021-7e-3 -0.032-0.011-0.367-0.129-0.359-0.169-0.61-0.164-0.143 0.246-0.215 0.369-0.681 1.181-0.234 0.404-0.435 0.745-0.601 1.022l0.103-0.08-0.67 1.691c-0.361 0.91-0.526 1.779-0.526 2.698 0 0.24 0.035 0.455 0.118 0.722 0.066 0.215 0.12 0.309 0.319 0.409 0.233 0.135 0.319 0.159 0.403 0.159 0.028 0 0.056 0 0.084-1e-3zm-7.027-1.687c0.048-0.362 0.157-0.775 0.314-1.205 0.538-1.407 1.446-2.741 2.666-3.914-0.035-2e-3 -0.07-3e-3 -0.107-3e-3 -0.219 0-0.41 0.025-0.651 0.088-0.132 0.082-0.428 0.513-1.169 1.663-0.732 1.11-1.06 2.109-1.06 3.129 0 0.085 2e-3 0.166 7e-3 0.242zm22.512 2.153c-0.042 0.045-0.066 0.075-0.081 0.096 5e-3 0 0.011-1e-3 0.021-1e-3 0.144 0 0.257-0.015 0.411-0.06 0.741-0.214 1.415-0.634 2.134-1.322 0.703-0.653 0.975-1.205 0.975-1.838 0-0.234-0.247-0.46-1.102-0.897-0.438-0.229-0.689-0.365-0.772-0.425-0.552-0.37-0.458-0.341-0.639-0.526-0.267 0.458-0.302 0.477-0.886 1.322l-0.023 0.034-0.018 0.019c-0.109 0.11-0.289 0.242-0.433 0.281-0.168 0.045-0.47-0.049-0.622-0.13-0.114-0.115-0.26-0.344-0.27-0.512-8e-3 -0.15 0.087-0.39 0.16-0.52 0.746-1.024 1.197-1.809 1.43-2.472 0.202-1.131 1.035-2.196 2.468-3.073 1.41-0.843 2.779-1.301 3.977-1.301 0.775 0 1.441 0.198 1.831 0.506 0.337 0.314 0.599 0.748 0.599 1.114 0 0.301-0.095 0.682-0.252 1.04-0.174 0.398-0.568 0.804-1.038 1.121-0.13 0.068-0.375 0.141-0.53 0.108-0.156-0.034-0.35-0.202-0.44-0.318l-0.042-0.054-9e-3 -0.05c-0.032-0.177-0.02-0.449 0.058-0.598 0.062-0.121 0.172-0.257 0.293-0.376 0.147-0.134 0.207-0.268 0.246-0.532 0.012-0.017 0.021-0.03 0.028-0.041h-0.154c-0.655 0-1.456 0.237-2.509 0.768-1.046 0.509-1.82 1.15-2.388 1.962-0.21 0.248-0.263 0.413-0.263 0.65 0 0.174 0.059 0.257 0.44 0.453 0.179 0.109 0.486 0.283 0.929 0.528 0.449 0.241 0.776 0.424 0.971 0.542 0.211 0.13 0.475 0.337 0.749 0.59 0.308 0.284 0.516 0.664 0.577 0.978 0.067 0.693-0.248 1.501-0.906 2.245-0.95 1.027-2.385 1.782-4.177 2.191-0.422 0.098-0.874 0.153-1.303 0.153-0.517 0-0.995-0.298-1.257-0.684-0.085-0.166-0.153-0.399-0.153-0.606 0-0.286 0.271-0.735 0.596-1.124 0.327-0.316 0.85-0.641 1.495-0.924l0.057-0.025 0.023-3e-3c0.164-0.014 0.466 0.078 0.613 0.162 0.107 0.165 0.172 0.466 0.145 0.66-0.118 0.189-0.352 0.397-0.576 0.495-0.101 0.026-0.208 0.149-0.383 0.394zm2.957-0.365c0.478-0.281 0.883-0.61 1.222-0.995 0.568-0.602 0.767-1.011 0.658-1.433 0.017-0.098-0.054-0.189-0.266-0.385-0.045-0.041-0.088-0.08-0.128-0.116 0.011 0.057 0.017 0.113 0.017 0.169 0 0.861-0.482 1.775-1.284 2.561-0.073 0.068-0.146 0.134-0.219 0.199zm-1.741-6.224l0.022 0.073c0.082-0.272 0.223-0.544 0.399-0.779 0.658-0.908 1.59-1.667 2.731-2.238 0.788-0.391 1.522-0.66 2.165-0.788-0.985 0.043-2.038 0.408-3.265 1.154-1.301 0.763-1.93 1.503-2.002 2.403l-3e-3 0.045-0.021 0.058c-8e-3 0.024-0.017 0.048-0.026 0.072z" fill="none"/>
<path d="m268.3 384.1c0.873-1.252 1.784-2.318 2.733-3.198 0.942-0.88 1.688-1.434 2.237-1.659 0.556-0.225 1.097-0.339 1.625-0.339 0.535 0 1.037 0.288 1.509 0.864 2.701-10.054 5.283-15.08 7.745-15.08 0.823 0 1.382 0.384 1.677 1.15 0.141 0.373 0.211 0.699 0.211 0.982 0 0.79-0.211 1.794-0.633 3.013-0.422 1.218-1.076 2.555-1.962 4.011-0.887 1.455-2.16 3.25-3.82 5.382-1.653 2.133-2.567 3.322-2.743 3.571-0.633 2.336-1.126 4.592-1.477 6.77-0.352 2.189-0.528 3.82-0.528 4.892 0 1.071 0.116 1.924 0.348 2.555 0.119 0.406 0.299 0.648 0.538 0.728 0.232 0.08 0.433 0.034 0.602-0.135 0.169-0.17 0.295-0.322 0.38-0.457 0.091-0.124 0.2-0.242 0.327-0.356 0.126-0.101 0.221-0.123 0.285-0.068 0.055 0.068 0.045 0.243-0.032 0.525-0.155 0.317-0.303 0.587-0.443 0.813-0.317 0.338-0.686 0.507-1.108 0.507s-0.704-0.012-0.844-0.034c-0.943-0.258-1.414-1.365-1.414-3.317 0-1.895 0.158-3.651 0.475-5.263 0.429-2.213 0.823-4.046 1.181-5.501-3.151 5.878-5.388 8.818-6.71 8.818-0.317 0-0.658-0.153-1.024-0.457-0.359-0.293-0.668-0.716-0.928-1.27-0.254-0.553-0.38-1.145-0.38-1.777 0-0.631 0.087-1.235 0.264-1.811 0.393-1.32 1.03-2.606 1.909-3.859zm7.46-1.963l0.412-1.608c-0.24-0.191-0.654-0.287-1.245-0.287s-1.354 0.384-2.29 1.15c-0.936 0.779-1.815 1.756-2.638 2.928-0.689 1.038-1.298 2.213-1.825 3.521-0.52 1.308-0.781 2.268-0.781 2.877 0 1.163 0.208 1.743 0.623 1.743 0.414 0 1.044-0.536 1.888-1.607 2.188-2.878 4.14-5.784 5.856-8.717zm9.064-13.557c0.261-0.756 0.39-1.393 0.39-1.912 0-0.53-0.144-0.796-0.432-0.796s-0.668 0.288-1.14 0.863c-2.166 2.653-4.125 7.092-5.877 13.32 1.28-1.332 2.62-3.102 4.02-5.314s2.413-4.265 3.039-6.161zm10.297 10.375c1.063 0 1.593 0.825 1.593 2.471 0 0.847-0.147 1.54-0.443 2.082-0.493 1.173-1.29 2.195-2.395 3.064-1.105 0.868-2.04 1.348-2.807 1.438-0.274 0.034-0.422-0.09-0.443-0.372-0.021-0.136 3e-3 -0.215 0.074-0.237 0.071-0.034 0.127-0.051 0.169-0.051 0.45-0.068 1.031-0.418 1.741-1.049 1.316-1.139 2.279-2.307 2.891-3.504 0.261-0.563 0.39-1.112 0.39-1.641 0-0.52-0.158-0.779-0.475-0.779-0.26 0-0.604 0.174-1.034 0.525-0.928 0.699-1.902 1.907-2.922 3.622-1.027 1.726-1.699 3.407-2.016 5.043-0.098 0.508-0.147 1.011-0.147 1.507 0 0.485 0.129 0.947 0.39 1.387 0.253 0.44 0.647 0.66 1.182 0.66 0.591 0 1.269-0.248 2.036-0.744 2.223-1.456 3.936-3.656 5.139-6.601 0.119-0.249 0.229-0.293 0.327-0.135 0.077 0.067 0.116 0.147 0.116 0.237 0 0.089-0.029 0.203-0.084 0.338-0.591 1.579-1.341 2.984-2.248 4.214-1.751 2.404-3.458 3.605-5.117 3.605-1.414 0-2.406-0.682-2.976-2.047-0.218-0.53-0.327-1.18-0.327-1.947 0-0.756 0.127-1.653 0.38-2.691 0.493-1.806 1.548-3.656 3.165-5.551 1.612-1.896 2.891-2.844 3.841-2.844zm23.088-10.375c0.232-0.699 0.348-1.235 0.348-1.608 0-0.665-0.166-0.998-0.496-0.998-0.282 0-0.626 0.254-1.034 0.761-1.576 1.952-3.102 5.049-4.579 9.292-1.182 3.407-2.051 6.33-2.607 8.767 1.358-1.489 2.881-3.909 4.569-7.26 1.681-3.352 2.947-6.335 3.799-8.954zm-8.811 18.11c-0.232 1.071-0.359 1.789-0.38 2.149-0.021 0.361-0.031 0.852-0.031 1.473 0 0.609 0.098 1.168 0.295 1.676 0.338 0.858 0.9 0.919 1.688 0.186 0.591-0.496 1.337-1.417 2.237-2.759 0.908-1.342 1.607-2.568 2.1-3.673 0.042-0.101 0.102-0.152 0.179-0.152 0.177 0 0.225 0.208 0.148 0.626-0.295 0.846-0.841 1.935-1.635 3.267-0.802 1.32-1.527 2.369-2.174 3.148-0.654 0.778-1.305 1.167-1.952 1.167-1.498 0-2.247-1.172-2.247-3.52v-0.271c0.077-2.212 0.777-5.556 2.099-10.036 1.322-4.468 2.515-7.836 3.577-10.104l0.918-1.862c0.211-0.406 0.525-0.909 0.939-1.507 0.788-1.206 1.601-1.81 2.438-1.81 0.836 0 1.403 0.411 1.698 1.235 0.098 0.283 0.148 0.694 0.148 1.236 0 0.541-0.148 1.298-0.443 2.268-2.026 5.664-5.226 11.419-9.602 17.263zm18.57-7.075c0.492 0 0.788 0.254 0.886 0.762 0.036 0.283 0.01 0.558-0.074 0.829-0.091 0.271-0.154 0.486-0.19 0.643-0.042 0.158-0.074 0.283-0.095 0.373-0.098 0.316-0.196 0.621-0.295 0.914-1.119 3.6-1.71 5.89-1.773 6.871-0.021 0.283-0.032 0.643-0.032 1.083 0 0.441 0.082 0.801 0.243 1.084 0.274 0.507 0.669 0.541 1.182 0.101 0.514-0.44 1.228-1.325 2.142-2.657 0.915-1.32 1.656-2.612 2.226-3.876 0.078-0.157 0.166-0.198 0.264-0.118 0.099 0.079 0.148 0.157 0.148 0.237 0 0.079-0.017 0.164-0.053 0.254-0.296 0.858-0.826 1.946-1.593 3.266-1.267 2.178-2.322 3.52-3.166 4.028-0.491 0.283-0.907 0.423-1.245 0.423-0.787 0-1.308-0.597-1.561-1.794-0.043-0.225-0.064-0.496-0.064-0.812 0-1.105 0.317-2.776 0.95-5.01-0.098 0.339-0.481 1.129-1.15 2.37-0.175 0.316-0.313 0.316-0.412 0-0.021-0.068-0.031-0.158-0.031-0.271 0-0.114 0.039-0.249 0.116-0.406 0.964-1.918 1.724-3.543 2.279-4.875-0.042-0.157-0.025-0.36 0.053-0.609 0.394-1.772 0.738-2.708 1.034-2.81h0.211zm2.331-6.296l-0.232 1.524c0 0.282-0.129 0.739-0.39 1.37-0.253 0.632-0.45 0.948-0.591 0.948-0.844 0-1.266-0.333-1.266-0.998 0-0.124 0.422-0.711 1.266-1.761l0.506-0.609c0.317-0.44 0.514-0.66 0.591-0.66 0.078 0 0.116 0.063 0.116 0.186zm10.94 37.489c-0.155 0-0.352-0.051-0.591-0.152-0.999-0.406-1.498-1.248-1.498-2.522 0-1.286 0.517-2.894 1.551-4.824 1.034-1.917 3.214-4.649 6.542-8.191 1.414-4.65 2.398-8.327 2.954-11.035-1.104 2.144-1.893 3.627-2.363 4.451-1.773 3.16-3.202 4.739-4.284 4.739-0.317 0-0.659-0.153-1.024-0.457-0.366-0.293-0.675-0.716-0.928-1.27-0.253-0.553-0.38-1.145-0.38-1.777 0-1.68 0.728-3.566 2.184-5.653 0.865-1.264 1.769-2.335 2.712-3.215 0.95-0.88 1.699-1.434 2.247-1.659 0.555-0.225 1.087-0.339 1.594-0.339 0.512 0 0.966 0.226 1.361 0.677 0.393 0.441 0.591 0.881 0.591 1.321 0 0.248-0.078 0.326-0.233 0.237-0.218-0.598-0.696-0.897-1.435-0.897-0.738 0-1.576 0.384-2.511 1.15-0.936 0.779-1.777 1.698-2.522 2.759-0.753 1.061-1.389 2.263-1.909 3.605-0.522 1.342-0.781 2.331-0.781 2.962 0 1.105 0.196 1.659 0.591 1.659 0.548 0 1.396-0.728 2.543-2.184 1.688-2.12 3.313-4.7 4.874-7.734 0.254-0.598 0.784-0.581 1.594 0.051 0.316 0.258 0.443 0.478 0.379 0.66-0.253 0.925-0.721 2.516-1.403 4.772-0.675 2.257-1.182 3.956-1.519 5.095 0.449-0.384 1.224-1.342 2.321-2.877 1.09-1.524 2.05-3.064 2.881-4.621 0.428-0.812 0.643-0.936 0.643-0.372 0 0.79-1.182 2.877-3.545 6.262-1.358 1.951-2.321 3.182-2.891 3.69-1.675 5.529-2.796 9.004-3.366 10.425-1.477 3.509-2.938 5.264-4.379 5.264zm5.445-13.895c-2.364 2.843-4.059 5.094-5.086 6.753-1.028 1.658-1.541 3.215-1.541 4.671 0 0.44 0.091 0.757 0.275 0.948 0.175 0.191 0.362 0.288 0.559 0.288 0.196 0 0.481-0.237 0.855-0.711 0.372-0.474 0.692-0.943 0.96-1.405 0.267-0.452 0.499-0.875 0.696-1.269 0.196-0.395 0.418-0.903 0.665-1.524 0.246-0.609 0.436-1.088 0.57-1.438 0.14-0.351 0.333-0.897 0.58-1.642 0.246-0.745 0.415-1.247 0.506-1.506 0.085-0.271 0.249-0.818 0.496-1.642 0.246-0.824 0.401-1.332 0.465-1.523zm28.009-31.887c0.359-0.225 0.665-0.338 0.918-0.338 0.866 0 1.44 0.384 1.72 1.15 0.155 0.373 0.232 0.699 0.232 0.982 0 2.155-1.121 4.858-3.365 8.107-1.99 2.81-3.823 5.23-5.498 7.261-0.548 1.985-1.118 4.434-1.709 7.345 0.704-1.399 1.597-3.012 2.68-4.84 2.188-3.634 3.714-5.45 4.579-5.45 0.437 0 0.665 0.35 0.686 1.049 0.036 0.723-0.059 1.417-0.285 2.082-0.225 0.665-0.436 1.281-0.633 1.845-0.928 2.459-1.393 4.654-1.393 6.584 0 0.631 0.082 1.088 0.243 1.371 0.274 0.507 0.669 0.541 1.182 0.101 0.514-0.44 1.228-1.325 2.142-2.657 0.915-1.32 1.656-2.612 2.226-3.876 0.099-0.157 0.194-0.198 0.285-0.118 0.084 0.079 0.127 0.157 0.127 0.237 0 0.079-0.017 0.164-0.053 0.254-0.296 0.858-0.826 1.941-1.593 3.249-0.774 1.308-1.396 2.246-1.868 2.81-0.907 1.105-1.773 1.658-2.596 1.658-0.752 0-1.255-0.597-1.509-1.794-0.055-0.282-0.084-0.621-0.084-1.015 0-0.395 0.018-0.813 0.053-1.253 0.099-1.332 0.622-3.402 1.572-6.211 0.197-0.576 0.295-0.982 0.295-1.219s-0.08-0.355-0.242-0.355c-0.317 0-0.925 0.631-1.826 1.895-0.612 0.926-1.515 2.658-2.711 5.196-1.188 2.539-1.861 3.888-2.016 4.045-0.71 0.576-1.15 0.864-1.319 0.864-0.168 0-0.263-0.039-0.285-0.119-0.013-0.079-3e-3 -0.181 0.032-0.304 0.042-0.136 0.201-0.835 0.475-2.099 0.928-4.198 1.558-6.973 1.889-8.327-0.647 1.32-1.452 2.821-2.417 4.502-0.161 0.249-0.242 0.191-0.242-0.169 0-0.361 0.088-0.733 0.263-1.118 0.184-0.384 0.553-1.117 1.108-2.2 0.564-1.095 0.965-1.907 1.203-2.437-0.175-0.157-0.27-0.384-0.285-0.677-6e-3 -0.283 0.053-0.479 0.18-0.592 0.126-0.102 0.337-0.063 0.633 0.118 0.197-0.44 0.377-0.926 0.538-1.455 2.342-8.091 4.566-12.784 6.668-14.082zm1.657 3.554c0.261-0.756 0.39-1.393 0.39-1.912 0-0.53-0.143-0.796-0.432-0.796-0.288 0-0.668 0.288-1.14 0.863-2.166 2.653-4.125 7.092-5.877 13.32 1.281-1.332 2.621-3.102 4.02-5.314 1.4-2.212 2.413-4.265 3.039-6.161zm16.267 10.951l0.38-0.051c1.519-0.225 2.441-0.339 2.764-0.339 0.324 0 0.486 0.08 0.486 0.237 0 0.192-0.232 0.39-0.697 0.593-0.464 0.215-1.59 0.479-3.376 0.795-0.098 0.283-0.218 0.61-0.359 0.982-0.295 0.767-0.454 1.23-0.475 1.388-1.118 3.6-1.709 5.89-1.772 6.871-0.021 0.283-0.032 0.643-0.032 1.083 0 0.441 0.081 0.801 0.243 1.084 0.274 0.507 0.668 0.541 1.182 0.101 0.513-0.44 1.227-1.325 2.141-2.657 0.915-1.32 1.657-2.612 2.227-3.876 0.077-0.157 0.176-0.191 0.295-0.101 0.296 0.225-0.214 1.472-1.53 3.74-1.266 2.178-2.321 3.52-3.165 4.028-0.493 0.283-0.908 0.423-1.245 0.423-0.788 0-1.309-0.597-1.562-1.794-0.042-0.225-0.063-0.496-0.063-0.812 0-1.105 0.316-2.776 0.95-5.01-0.099 0.339-0.483 1.129-1.151 2.37-0.176 0.316-0.313 0.316-0.411 0-0.021-0.068-0.032-0.158-0.032-0.271 0-0.114 0.039-0.249 0.116-0.406 0.964-1.918 1.723-3.543 2.279-4.875 0-0.034 0.215-0.699 0.644-1.997-0.197 0.068-0.398 0.102-0.601 0.102-0.211 0-0.366-0.102-0.465-0.305-0.098-0.203-0.105-0.452-0.021-0.745 0.134-0.496 0.654-0.778 1.562-0.846 0.021-0.068 0.06-0.102 0.116-0.102l1.477-4.4c0.077-0.249 0.166-0.508 0.264-0.779 0.098-0.27 0.172-0.479 0.222-0.626 0.049-0.135 0.105-0.282 0.168-0.44 0.056-0.157 0.106-0.271 0.148-0.338 0.035-0.056 0.074-0.119 0.116-0.187 0.077-0.191 0.309-0.287 0.697-0.287 0.379 0 0.64 0.174 0.78 0.524 0.056 0.124 0.085 0.339 0.085 0.644 0 0.292-0.067 0.626-0.201 0.998-0.14 0.361-0.288 0.621-0.443 0.779-0.161 0.157-0.271 0.333-0.327 0.524l-1.414 3.978zm12.859 13.692c-0.253 0.474-0.306 0.851-0.158 1.134s0.313 0.423 0.496 0.423c0.19 0 0.384-0.046 0.58-0.135 0.844-0.406 1.667-1.219 2.469-2.437 0.796-1.219 1.192-2.46 1.192-3.724 0-0.699-0.481-1.456-1.445-2.268-0.457-0.384-0.713-0.609-0.77-0.677-0.534-0.564-0.869-1.129-1.003-1.692-0.274 0.756-0.407-0.418-0.147-1.625 0.134-1.738 0.922-3.301 2.363-4.688 1.435-1.388 2.743-2.082 3.925-2.082 0.754 0 1.281 0.215 1.583 0.643 0.303 0.428 0.454 0.846 0.454 1.252 0 0.407-0.074 0.881-0.222 1.422-0.148 0.542-0.446 1.049-0.897 1.523-0.119 0.124-0.217 0.09-0.295-0.101-0.043-0.191 0.042-0.452 0.253-0.779 0.205-0.338 0.338-0.79 0.401-1.354 0.057-0.563-0.101-0.914-0.475-1.049h-0.179c-0.766 0-1.727 0.462-2.881 1.388-1.153 0.914-2.053 2.098-2.701 3.554-0.26 0.53-0.39 1.071-0.39 1.625 0 0.553 0.239 1.049 0.717 1.489 0.197 0.191 0.532 0.496 1.002 0.914 0.472 0.406 0.807 0.706 1.003 0.897 0.197 0.191 0.432 0.491 0.707 0.897 0.274 0.406 0.422 0.784 0.443 1.134 0.099 0.948-0.175 1.992-0.823 3.131-0.929 1.647-2.307 2.798-4.136 3.453-0.415 0.157-0.834 0.237-1.256 0.237s-0.713-0.249-0.876-0.745c-0.055-0.135-0.084-0.333-0.084-0.592 0-0.271 0.158-0.706 0.475-1.303 0.295-0.474 0.767-0.936 1.414-1.388 0.057-0.022 0.105-5e-3 0.147 0.051 0.043 0.067 0.053 0.147 0.032 0.237-0.021 0.101-0.127 0.214-0.316 0.338-0.183 0.124-0.383 0.423-0.602 0.897z" fill="#333" style="text-transform:lowercase;white-space:pre"/>
</svg>
