<?xml version="1.0" encoding="utf-8"?>
<svg viewBox="253.418 333.02 166.183 77.791" xmlns="http://www.w3.org/2000/svg">
  <path d="M 255.591 352.433 C 256.464 351.18 257.374 350.114 258.324 349.234 C 259.266 348.354 260.012 347.8 260.561 347.575 C 261.117 347.35 261.658 347.237 262.186 347.237 C 262.721 347.237 263.223 347.524 263.695 348.1 C 266.396 338.046 268.978 333.02 271.439 333.02 C 272.262 333.02 272.822 333.404 273.117 334.171 C 273.257 334.543 273.328 334.87 273.328 335.152 C 273.328 335.943 273.117 336.946 272.695 338.165 C 272.273 339.384 271.619 340.721 270.732 342.176 C 269.846 343.632 268.573 345.426 266.913 347.558 C 265.259 349.691 264.346 350.881 264.169 351.129 C 263.536 353.465 263.044 355.721 262.692 357.899 C 262.341 360.088 262.165 361.719 262.165 362.791 C 262.165 363.862 262.281 364.715 262.513 365.346 C 262.632 365.753 262.811 365.995 263.051 366.074 C 263.283 366.154 263.484 366.108 263.652 365.939 C 263.821 365.77 263.948 365.617 264.032 365.482 C 264.124 365.358 264.233 365.24 264.359 365.126 C 264.486 365.025 264.581 365.003 264.644 365.059 C 264.7 365.126 264.69 365.301 264.613 365.583 C 264.458 365.9 264.31 366.171 264.169 366.396 C 263.853 366.734 263.484 366.904 263.062 366.904 C 262.64 366.904 262.358 366.892 262.217 366.87 C 261.275 366.611 260.804 365.504 260.804 363.552 C 260.804 361.657 260.962 359.902 261.278 358.289 C 261.708 356.077 262.101 354.244 262.46 352.788 C 259.308 358.666 257.072 361.606 255.749 361.606 C 255.433 361.606 255.092 361.454 254.726 361.149 C 254.367 360.856 254.058 360.433 253.797 359.88 C 253.544 359.326 253.418 358.734 253.418 358.103 C 253.418 357.471 253.505 356.867 253.681 356.292 C 254.075 354.971 254.712 353.685 255.591 352.433 Z M 263.051 350.469 L 263.463 348.862 C 263.223 348.67 262.808 348.574 262.217 348.574 C 261.627 348.574 260.864 348.958 259.928 349.725 C 258.992 350.503 258.113 351.48 257.29 352.653 C 256.601 353.69 255.992 354.865 255.465 356.173 C 254.944 357.481 254.684 358.441 254.684 359.05 C 254.684 360.213 254.892 360.794 255.306 360.794 C 255.721 360.794 256.351 360.257 257.195 359.186 C 259.382 356.309 261.334 353.402 263.051 350.469 Z M 272.115 336.912 C 272.375 336.156 272.505 335.52 272.505 335 C 272.505 334.47 272.361 334.205 272.072 334.205 C 271.784 334.205 271.405 334.492 270.933 335.068 C 268.767 337.72 266.807 342.159 265.056 348.388 C 266.336 347.056 267.676 345.285 269.076 343.073 C 270.476 340.861 271.489 338.808 272.115 336.912 Z M 282.412 347.288 C 283.474 347.288 284.005 348.112 284.005 349.759 C 284.005 350.605 283.857 351.299 283.562 351.84 C 283.069 353.013 282.271 354.035 281.167 354.904 C 280.062 355.772 279.127 356.253 278.36 356.342 C 278.086 356.376 277.938 356.253 277.917 355.97 C 277.896 355.835 277.92 355.755 277.991 355.733 C 278.061 355.699 278.117 355.682 278.16 355.682 C 278.61 355.615 279.19 355.264 279.901 354.633 C 281.216 353.494 282.18 352.326 282.792 351.129 C 283.052 350.566 283.182 350.018 283.182 349.488 C 283.182 348.968 283.024 348.709 282.707 348.709 C 282.447 348.709 282.103 348.884 281.673 349.234 C 280.745 349.933 279.771 351.141 278.75 352.856 C 277.724 354.582 277.052 356.263 276.735 357.899 C 276.637 358.407 276.587 358.91 276.587 359.406 C 276.587 359.892 276.717 360.354 276.978 360.794 C 277.231 361.234 277.625 361.454 278.16 361.454 C 278.75 361.454 279.429 361.205 280.196 360.709 C 282.419 359.253 284.132 357.053 285.335 354.108 C 285.454 353.859 285.563 353.815 285.662 353.973 C 285.739 354.041 285.778 354.12 285.778 354.21 C 285.778 354.3 285.749 354.413 285.693 354.548 C 285.102 356.127 284.353 357.532 283.446 358.763 C 281.694 361.166 279.988 362.368 278.328 362.368 C 276.915 362.368 275.923 361.686 275.353 360.32 C 275.134 359.79 275.026 359.14 275.026 358.373 C 275.026 357.617 275.152 356.72 275.406 355.682 C 275.898 353.876 276.954 352.026 278.571 350.131 C 280.182 348.235 281.462 347.288 282.412 347.288 Z M 305.499 336.912 C 305.731 336.213 305.848 335.677 305.848 335.305 C 305.848 334.639 305.682 334.306 305.352 334.306 C 305.07 334.306 304.726 334.56 304.318 335.068 C 302.742 337.019 301.215 340.116 299.738 344.359 C 298.557 347.766 297.688 350.689 297.132 353.127 C 298.49 351.637 300.013 349.217 301.701 345.866 C 303.382 342.515 304.648 339.531 305.499 336.912 Z M 296.689 355.022 C 296.457 356.094 296.33 356.811 296.309 357.172 C 296.288 357.532 296.277 358.023 296.277 358.644 C 296.277 359.253 296.376 359.812 296.573 360.32 C 296.91 361.178 297.473 361.239 298.261 360.506 C 298.852 360.01 299.598 359.089 300.498 357.747 C 301.405 356.405 302.105 355.18 302.598 354.074 C 302.64 353.973 302.7 353.922 302.777 353.922 C 302.953 353.922 303.002 354.13 302.925 354.548 C 302.629 355.395 302.084 356.483 301.289 357.815 C 300.487 359.135 299.763 360.184 299.116 360.963 C 298.462 361.741 297.811 362.131 297.164 362.131 C 295.665 362.131 294.916 360.958 294.916 358.61 C 294.916 358.521 294.916 358.429 294.916 358.34 C 294.993 356.127 295.694 352.783 297.016 348.303 C 298.338 343.835 299.53 340.467 300.593 338.199 L 301.511 336.337 C 301.722 335.931 302.035 335.428 302.45 334.831 C 303.238 333.624 304.051 333.02 304.887 333.02 C 305.724 333.02 306.291 333.431 306.586 334.255 C 306.684 334.538 306.734 334.949 306.734 335.491 C 306.734 336.032 306.586 336.789 306.291 337.759 C 304.265 343.424 301.065 349.178 296.689 355.022 Z M 315.258 347.948 C 315.751 347.948 316.047 348.201 316.145 348.709 C 316.181 348.992 316.155 349.268 316.071 349.539 C 315.98 349.809 315.917 350.024 315.881 350.182 C 315.839 350.339 315.807 350.464 315.786 350.554 C 315.688 350.871 315.59 351.175 315.49 351.468 C 314.372 355.068 313.781 357.358 313.718 358.34 C 313.697 358.622 313.686 358.983 313.686 359.423 C 313.686 359.863 313.767 360.223 313.929 360.506 C 314.203 361.014 314.598 361.048 315.111 360.607 C 315.624 360.167 316.339 359.282 317.253 357.95 C 318.167 356.63 318.909 355.339 319.479 354.074 C 319.557 353.917 319.645 353.876 319.743 353.956 C 319.842 354.035 319.89 354.113 319.89 354.193 C 319.89 354.272 319.874 354.357 319.838 354.447 C 319.542 355.305 319.011 356.393 318.244 357.713 C 316.978 359.892 315.923 361.234 315.079 361.741 C 314.587 362.024 314.172 362.165 313.834 362.165 C 313.047 362.165 312.526 361.567 312.272 360.371 C 312.23 360.145 312.209 359.875 312.209 359.558 C 312.209 358.453 312.526 356.782 313.159 354.548 C 313.06 354.887 312.677 355.677 312.008 356.918 C 311.833 357.234 311.696 357.234 311.597 356.918 C 311.576 356.85 311.565 356.76 311.565 356.647 C 311.565 356.534 311.604 356.398 311.681 356.241 C 312.646 354.323 313.406 352.698 313.961 351.366 C 313.918 351.209 313.936 351.006 314.013 350.757 C 314.408 348.985 314.752 348.049 315.047 347.948 C 315.111 347.948 315.181 347.948 315.258 347.948 Z M 317.59 341.651 L 317.358 343.175 C 317.358 343.457 317.228 343.914 316.968 344.546 C 316.714 345.177 316.518 345.493 316.377 345.493 C 315.533 345.493 315.111 345.16 315.111 344.495 C 315.111 344.371 315.533 343.784 316.377 342.735 L 316.883 342.125 C 317.2 341.685 317.397 341.465 317.474 341.465 C 317.552 341.465 317.59 341.528 317.59 341.651 Z M 336.749 350.656 L 336.897 349.708 C 336.897 349.076 336.749 348.76 336.454 348.76 C 335.645 348.76 334.54 349.77 333.141 351.79 C 331.741 353.809 330.854 355.846 330.482 357.899 C 330.383 358.441 330.334 358.927 330.334 359.355 C 330.334 359.783 330.393 360.139 330.514 360.421 C 330.752 360.985 331.118 361.268 331.611 361.268 C 332.103 361.268 332.634 361.161 333.204 360.946 C 334.463 360.371 335.511 359.553 336.348 358.492 C 337.185 357.442 338.068 355.97 338.997 354.074 C 339.074 353.917 339.166 353.866 339.271 353.922 C 339.383 353.99 339.44 354.079 339.44 354.193 C 339.44 354.294 339.408 354.459 339.345 354.684 C 338.402 356.737 337.414 358.402 336.38 359.677 C 335.346 360.963 334.15 361.792 332.793 362.165 C 332.398 362.266 332.033 362.317 331.695 362.317 C 330.731 362.317 329.997 361.939 329.49 361.183 C 328.99 360.416 328.741 359.575 328.741 358.661 C 328.741 357.747 328.878 356.754 329.152 355.682 C 329.644 353.876 330.699 352.026 332.318 350.131 C 333.928 348.235 335.209 347.288 336.159 347.288 C 336.391 347.288 336.615 347.338 336.834 347.44 C 337.389 347.756 337.667 348.257 337.667 348.946 C 337.667 349.42 337.558 349.957 337.34 350.554 C 337.122 351.163 336.96 351.378 336.855 351.197 C 336.742 351.028 336.707 350.847 336.749 350.656 Z M 351.71 347.948 C 352.202 347.948 352.497 348.201 352.597 348.709 C 352.631 348.992 352.607 349.268 352.523 349.539 C 352.431 349.809 352.368 350.024 352.333 350.182 C 352.291 350.339 352.259 350.464 352.238 350.554 C 352.139 350.871 352.041 351.175 351.942 351.468 C 350.824 355.068 350.233 357.358 350.17 358.34 C 350.149 358.622 350.138 358.983 350.138 359.423 C 350.138 359.863 350.218 360.223 350.381 360.506 C 350.655 361.014 351.049 361.048 351.563 360.607 C 352.075 360.167 352.79 359.282 353.705 357.95 C 354.618 356.63 355.361 355.339 355.931 354.074 C 356.008 353.917 356.095 353.876 356.195 353.956 C 356.293 354.035 356.342 354.113 356.342 354.193 C 356.342 354.272 356.324 354.357 356.29 354.447 C 355.994 355.305 355.462 356.393 354.696 357.713 C 353.43 359.892 352.375 361.234 351.531 361.741 C 351.038 362.024 350.623 362.165 350.286 362.165 C 349.498 362.165 348.977 361.567 348.724 360.371 C 348.682 360.145 348.661 359.875 348.661 359.558 C 348.661 358.453 348.977 356.782 349.611 354.548 C 349.511 354.887 349.128 355.677 348.46 356.918 C 348.284 357.234 348.147 357.234 348.049 356.918 C 348.028 356.85 348.017 356.76 348.017 356.647 C 348.017 356.534 348.055 356.398 348.133 356.241 C 349.097 354.323 349.856 352.698 350.412 351.366 C 350.37 351.209 350.387 351.006 350.465 350.757 C 350.859 348.985 351.204 348.049 351.499 347.948 C 351.563 347.948 351.632 347.948 351.71 347.948 Z M 354.042 341.651 L 353.81 343.175 C 353.81 343.457 353.679 343.914 353.42 344.546 C 353.166 345.177 352.969 345.493 352.829 345.493 C 351.985 345.493 351.563 345.16 351.563 344.495 C 351.563 344.371 351.985 343.784 352.829 342.735 L 353.335 342.125 C 353.652 341.685 353.848 341.465 353.926 341.465 C 354.003 341.465 354.042 341.528 354.042 341.651 Z M 371.903 355.868 C 372.254 354.696 372.43 353.792 372.43 353.16 C 372.43 352.529 372.385 352.032 372.293 351.671 C 372.209 351.311 372.251 351.006 372.42 350.757 C 372.581 350.498 372.792 350.402 373.053 350.469 C 373.446 350.627 373.644 351.338 373.644 352.602 C 373.644 353.866 373.179 355.525 372.251 357.578 C 372.272 358.424 371.931 359.553 371.691 358.763 C 371.298 359.428 370.914 360.044 370.541 360.607 C 369.774 361.645 368.916 362.165 367.967 362.165 C 367.439 362.165 366.996 361.961 366.637 361.555 C 365.948 360.89 365.603 359.705 365.603 358.001 C 365.603 356.139 365.997 354.244 366.785 352.314 C 367.242 351.175 367.774 350.182 368.378 349.335 C 369.349 347.97 370.267 347.288 371.132 347.288 C 371.351 347.288 371.557 347.338 371.755 347.44 C 372.346 347.756 372.641 348.354 372.641 349.234 C 372.641 349.957 372.522 350.317 372.282 350.317 C 372.184 350.261 372.135 350.024 372.135 349.606 C 372.135 349.043 371.937 348.76 371.544 348.76 C 370.855 348.76 369.968 349.77 368.885 351.79 C 367.801 353.809 367.151 355.846 366.933 357.899 C 366.898 358.25 366.88 358.639 366.88 359.067 C 366.88 359.495 366.968 359.986 367.144 360.54 C 367.32 361.093 367.65 361.369 368.136 361.369 C 368.614 361.369 369.138 361.019 369.708 360.32 C 370.285 359.631 370.798 358.746 371.248 357.663 L 371.164 357.392 C 371.08 356.884 371.119 356.473 371.28 356.156 C 371.435 355.84 371.642 355.745 371.903 355.868 Z M 400.272 354.447 C 399.977 355.305 399.446 356.393 398.679 357.713 C 397.912 359.045 397.223 360.071 396.611 360.794 C 395.823 361.708 394.965 362.165 394.036 362.165 C 393.86 362.165 393.628 362.034 393.34 361.775 C 393.058 361.504 392.868 361.115 392.77 360.607 C 392.672 360.1 392.622 359.609 392.622 359.135 C 392.622 357.498 392.82 355.874 393.213 354.261 C 393.15 354.316 392.879 354.988 392.401 356.275 C 391.915 357.549 391.324 358.758 390.628 359.897 C 389.924 361.036 389.222 361.606 388.518 361.606 C 388.18 361.606 387.793 361.466 387.357 361.183 C 386.569 360.607 386.175 359.563 386.175 358.052 C 386.175 356.19 386.576 354.272 387.378 352.297 C 388.173 350.322 388.679 349.268 388.898 349.132 C 389.193 349.009 389.475 348.946 389.742 348.946 C 390.009 348.946 390.28 349.036 390.554 349.217 C 390.829 349.386 390.79 349.674 390.438 350.08 C 389.074 352.077 388.106 354.289 387.537 356.715 C 387.318 357.663 387.209 358.463 387.209 359.118 C 387.209 359.761 387.315 360.179 387.526 360.371 C 387.73 360.562 387.93 360.658 388.127 360.658 C 388.599 360.658 389.246 360.128 390.069 359.067 C 390.885 358.006 392.01 355.801 393.445 352.45 C 393.643 351.976 393.987 351.057 394.479 349.691 C 394.972 348.315 395.268 347.496 395.366 347.237 C 395.682 347.237 396.052 347.355 396.474 347.592 C 396.896 347.829 397.04 348.139 396.906 348.523 C 395.957 351.05 395.292 352.912 394.912 354.108 C 394.525 355.315 394.265 356.727 394.131 358.34 C 394.11 358.622 394.1 358.983 394.1 359.423 C 394.1 359.863 394.177 360.223 394.332 360.506 C 394.627 361.014 395.035 361.042 395.556 360.591 C 396.083 360.128 396.798 359.242 397.698 357.933 C 398.605 356.625 399.336 355.339 399.892 354.074 C 399.969 353.917 400.061 353.876 400.167 353.956 C 400.279 354.035 400.335 354.113 400.335 354.193 C 400.335 354.272 400.314 354.357 400.272 354.447 Z M 410.063 361.555 C 409.81 362.029 409.757 362.407 409.904 362.689 C 410.052 362.972 410.217 363.112 410.4 363.112 C 410.59 363.112 410.783 363.067 410.981 362.977 C 411.825 362.571 412.648 361.758 413.45 360.54 C 414.244 359.321 414.642 358.081 414.642 356.816 C 414.642 356.117 414.16 355.361 413.197 354.548 C 412.739 354.164 412.482 353.939 412.426 353.871 C 411.891 353.308 411.557 352.742 411.424 352.179 C 411.15 352.935 411.016 351.761 411.276 350.554 C 411.409 348.816 412.197 347.254 413.64 345.866 C 415.075 344.478 416.383 343.784 417.565 343.784 C 418.317 343.784 418.845 343.999 419.148 344.427 C 419.449 344.855 419.601 345.273 419.601 345.68 C 419.601 346.086 419.527 346.56 419.38 347.101 C 419.232 347.643 418.932 348.151 418.483 348.625 C 418.362 348.748 418.264 348.714 418.187 348.523 C 418.145 348.332 418.23 348.071 418.441 347.744 C 418.644 347.406 418.778 346.954 418.842 346.39 C 418.897 345.827 418.739 345.477 418.367 345.341 C 418.303 345.341 418.243 345.341 418.187 345.341 C 417.42 345.341 416.46 345.803 415.307 346.729 C 414.152 347.643 413.252 348.828 412.606 350.283 C 412.345 350.813 412.215 351.355 412.215 351.908 C 412.215 352.461 412.454 352.957 412.933 353.397 C 413.129 353.589 413.463 353.893 413.935 354.311 C 414.406 354.718 414.74 355.017 414.937 355.208 C 415.134 355.4 415.37 355.699 415.644 356.105 C 415.919 356.512 416.066 356.889 416.088 357.239 C 416.186 358.187 415.911 359.231 415.265 360.371 C 414.336 362.017 412.957 363.168 411.128 363.823 C 410.713 363.981 410.295 364.06 409.873 364.06 C 409.451 364.06 409.158 363.811 408.997 363.315 C 408.94 363.18 408.913 362.982 408.913 362.723 C 408.913 362.452 409.071 362.017 409.387 361.42 C 409.683 360.946 410.153 360.484 410.801 360.032 C 410.857 360.01 410.907 360.027 410.949 360.083 C 410.991 360.15 411.002 360.23 410.981 360.32 C 410.96 360.421 410.854 360.535 410.664 360.658 C 410.481 360.782 410.28 361.081 410.063 361.555 Z" style="text-transform: lowercase; white-space: pre; paint-order: stroke;"/>
  <path d="M 268.3 384.103 C 269.173 382.851 270.084 381.785 271.033 380.905 C 271.975 380.025 272.721 379.471 273.27 379.246 C 273.826 379.021 274.367 378.907 274.895 378.907 C 275.43 378.907 275.932 379.195 276.404 379.771 C 279.105 369.717 281.687 364.691 284.149 364.691 C 284.972 364.691 285.531 365.075 285.826 365.841 C 285.967 366.214 286.037 366.54 286.037 366.823 C 286.037 367.613 285.826 368.617 285.404 369.836 C 284.982 371.054 284.328 372.391 283.442 373.847 C 282.555 375.302 281.282 377.097 279.622 379.229 C 277.969 381.362 277.055 382.551 276.879 382.8 C 276.246 385.136 275.753 387.392 275.402 389.57 C 275.05 391.759 274.874 393.39 274.874 394.462 C 274.874 395.533 274.99 396.386 275.222 397.017 C 275.341 397.423 275.521 397.665 275.76 397.745 C 275.992 397.825 276.193 397.779 276.362 397.61 C 276.531 397.44 276.657 397.288 276.742 397.153 C 276.833 397.029 276.942 396.911 277.069 396.797 C 277.195 396.696 277.29 396.674 277.354 396.729 C 277.409 396.797 277.399 396.972 277.322 397.254 C 277.167 397.571 277.019 397.841 276.879 398.067 C 276.562 398.405 276.193 398.574 275.771 398.574 C 275.349 398.574 275.067 398.562 274.927 398.54 C 273.984 398.282 273.513 397.175 273.513 395.223 C 273.513 393.328 273.671 391.572 273.988 389.96 C 274.417 387.747 274.811 385.914 275.169 384.459 C 272.018 390.337 269.781 393.277 268.459 393.277 C 268.142 393.277 267.801 393.124 267.435 392.82 C 267.076 392.527 266.767 392.104 266.507 391.55 C 266.253 390.997 266.127 390.405 266.127 389.773 C 266.127 389.142 266.214 388.538 266.391 387.962 C 266.784 386.642 267.421 385.356 268.3 384.103 Z M 275.76 382.14 L 276.172 380.532 C 275.932 380.341 275.518 380.245 274.927 380.245 C 274.336 380.245 273.573 380.629 272.637 381.395 C 271.701 382.174 270.822 383.151 269.999 384.323 C 269.31 385.361 268.701 386.536 268.174 387.844 C 267.654 389.152 267.393 390.112 267.393 390.721 C 267.393 391.884 267.601 392.464 268.016 392.464 C 268.43 392.464 269.06 391.928 269.904 390.857 C 272.092 387.979 274.044 385.073 275.76 382.14 Z M 284.824 368.583 C 285.085 367.827 285.214 367.19 285.214 366.671 C 285.214 366.141 285.07 365.875 284.782 365.875 C 284.494 365.875 284.114 366.163 283.642 366.738 C 281.476 369.391 279.517 373.83 277.765 380.058 C 279.045 378.726 280.385 376.956 281.785 374.744 C 283.185 372.532 284.198 370.479 284.824 368.583 Z M 295.121 378.958 C 296.184 378.958 296.714 379.783 296.714 381.429 C 296.714 382.276 296.567 382.969 296.271 383.511 C 295.778 384.684 294.981 385.706 293.876 386.575 C 292.771 387.443 291.836 387.923 291.069 388.013 C 290.795 388.047 290.647 387.923 290.626 387.641 C 290.605 387.505 290.629 387.426 290.7 387.404 C 290.771 387.37 290.827 387.353 290.869 387.353 C 291.319 387.285 291.9 386.935 292.61 386.304 C 293.926 385.165 294.889 383.997 295.501 382.8 C 295.762 382.237 295.891 381.688 295.891 381.159 C 295.891 380.639 295.733 380.38 295.416 380.38 C 295.156 380.38 294.812 380.554 294.382 380.905 C 293.454 381.604 292.48 382.812 291.46 384.527 C 290.433 386.253 289.761 387.934 289.444 389.57 C 289.346 390.078 289.297 390.581 289.297 391.077 C 289.297 391.562 289.426 392.024 289.687 392.464 C 289.94 392.904 290.334 393.124 290.869 393.124 C 291.46 393.124 292.138 392.876 292.905 392.38 C 295.128 390.924 296.841 388.724 298.044 385.779 C 298.163 385.53 298.273 385.486 298.371 385.644 C 298.448 385.711 298.487 385.791 298.487 385.881 C 298.487 385.97 298.458 386.084 298.403 386.219 C 297.812 387.798 297.062 389.203 296.155 390.433 C 294.404 392.837 292.697 394.038 291.038 394.038 C 289.624 394.038 288.632 393.356 288.062 391.991 C 287.844 391.461 287.735 390.811 287.735 390.044 C 287.735 389.288 287.862 388.391 288.115 387.353 C 288.608 385.547 289.663 383.697 291.28 381.802 C 292.892 379.906 294.171 378.958 295.121 378.958 Z M 318.209 368.583 C 318.441 367.884 318.557 367.348 318.557 366.975 C 318.557 366.31 318.391 365.977 318.061 365.977 C 317.779 365.977 317.435 366.231 317.027 366.738 C 315.451 368.69 313.925 371.787 312.448 376.03 C 311.266 379.437 310.397 382.36 309.841 384.797 C 311.199 383.308 312.722 380.888 314.41 377.537 C 316.091 374.185 317.357 371.202 318.209 368.583 Z M 309.398 386.693 C 309.166 387.764 309.039 388.482 309.018 388.842 C 308.997 389.203 308.987 389.694 308.987 390.315 C 308.987 390.924 309.085 391.483 309.282 391.991 C 309.62 392.849 310.182 392.91 310.97 392.177 C 311.561 391.681 312.307 390.76 313.207 389.418 C 314.115 388.076 314.814 386.85 315.307 385.745 C 315.349 385.644 315.409 385.593 315.486 385.593 C 315.663 385.593 315.711 385.801 315.634 386.219 C 315.339 387.065 314.793 388.154 313.999 389.486 C 313.197 390.806 312.472 391.855 311.825 392.634 C 311.171 393.412 310.52 393.801 309.873 393.801 C 308.375 393.801 307.626 392.629 307.626 390.281 C 307.626 390.191 307.626 390.1 307.626 390.01 C 307.703 387.798 308.403 384.454 309.725 379.974 C 311.047 375.506 312.24 372.138 313.302 369.87 L 314.22 368.008 C 314.431 367.602 314.745 367.099 315.159 366.501 C 315.947 365.295 316.76 364.691 317.597 364.691 C 318.433 364.691 319 365.102 319.295 365.926 C 319.393 366.209 319.443 366.62 319.443 367.162 C 319.443 367.703 319.295 368.46 319 369.43 C 316.974 375.094 313.774 380.849 309.398 386.693 Z M 327.968 379.618 C 328.46 379.618 328.756 379.872 328.854 380.38 C 328.89 380.663 328.864 380.938 328.78 381.209 C 328.689 381.48 328.626 381.695 328.59 381.852 C 328.548 382.01 328.516 382.135 328.495 382.225 C 328.397 382.541 328.299 382.846 328.2 383.139 C 327.081 386.739 326.49 389.029 326.427 390.01 C 326.406 390.293 326.395 390.653 326.395 391.093 C 326.395 391.534 326.477 391.894 326.638 392.177 C 326.912 392.684 327.307 392.718 327.82 392.278 C 328.334 391.838 329.048 390.953 329.962 389.621 C 330.877 388.301 331.618 387.009 332.188 385.745 C 332.266 385.588 332.354 385.547 332.452 385.627 C 332.551 385.706 332.6 385.784 332.6 385.864 C 332.6 385.943 332.583 386.028 332.547 386.118 C 332.251 386.976 331.721 388.064 330.954 389.384 C 329.687 391.562 328.632 392.904 327.788 393.412 C 327.297 393.695 326.881 393.835 326.543 393.835 C 325.756 393.835 325.235 393.238 324.982 392.041 C 324.939 391.816 324.918 391.545 324.918 391.229 C 324.918 390.124 325.235 388.453 325.868 386.219 C 325.77 386.558 325.387 387.348 324.718 388.589 C 324.543 388.905 324.405 388.905 324.306 388.589 C 324.285 388.521 324.275 388.431 324.275 388.318 C 324.275 388.204 324.314 388.069 324.391 387.912 C 325.355 385.994 326.115 384.369 326.67 383.037 C 326.628 382.88 326.645 382.677 326.723 382.428 C 327.117 380.656 327.461 379.72 327.757 379.618 C 327.82 379.618 327.891 379.618 327.968 379.618 Z M 330.299 373.322 L 330.067 374.846 C 330.067 375.128 329.938 375.585 329.677 376.216 C 329.424 376.848 329.227 377.164 329.086 377.164 C 328.242 377.164 327.82 376.831 327.82 376.166 C 327.82 376.042 328.242 375.455 329.086 374.405 L 329.592 373.796 C 329.909 373.356 330.106 373.136 330.183 373.136 C 330.261 373.136 330.299 373.199 330.299 373.322 Z M 341.239 410.811 C 341.084 410.811 340.887 410.76 340.648 410.659 C 339.649 410.253 339.15 409.411 339.15 408.137 C 339.15 406.851 339.667 405.243 340.701 403.313 C 341.735 401.396 343.915 398.664 347.243 395.122 C 348.657 390.472 349.641 386.795 350.197 384.087 C 349.093 386.231 348.304 387.714 347.834 388.538 C 346.061 391.698 344.632 393.277 343.55 393.277 C 343.233 393.277 342.891 393.124 342.526 392.82 C 342.16 392.527 341.851 392.104 341.598 391.55 C 341.345 390.997 341.218 390.405 341.218 389.773 C 341.218 388.093 341.946 386.207 343.402 384.12 C 344.267 382.856 345.171 381.785 346.114 380.905 C 347.064 380.025 347.813 379.471 348.361 379.246 C 348.916 379.021 349.448 378.907 349.955 378.907 C 350.467 378.907 350.921 379.133 351.316 379.584 C 351.709 380.025 351.907 380.465 351.907 380.905 C 351.907 381.153 351.829 381.231 351.674 381.142 C 351.456 380.544 350.978 380.245 350.239 380.245 C 349.501 380.245 348.663 380.629 347.728 381.395 C 346.792 382.174 345.951 383.093 345.206 384.154 C 344.453 385.215 343.817 386.417 343.297 387.759 C 342.775 389.101 342.516 390.09 342.516 390.721 C 342.516 391.826 342.712 392.38 343.107 392.38 C 343.655 392.38 344.503 391.652 345.65 390.196 C 347.338 388.076 348.963 385.496 350.524 382.462 C 350.778 381.864 351.308 381.881 352.118 382.513 C 352.434 382.771 352.561 382.991 352.497 383.173 C 352.244 384.098 351.776 385.689 351.094 387.945 C 350.419 390.202 349.912 391.901 349.575 393.04 C 350.024 392.656 350.799 391.698 351.896 390.163 C 352.986 388.639 353.946 387.099 354.777 385.542 C 355.205 384.73 355.42 384.606 355.42 385.17 C 355.42 385.96 354.238 388.047 351.875 391.432 C 350.517 393.383 349.554 394.614 348.984 395.122 C 347.309 400.651 346.188 404.126 345.618 405.547 C 344.141 409.056 342.68 410.811 341.239 410.811 Z M 346.684 396.916 C 344.32 399.759 342.625 402.01 341.598 403.669 C 340.57 405.327 340.057 406.884 340.057 408.34 C 340.057 408.78 340.148 409.097 340.332 409.288 C 340.507 409.479 340.694 409.576 340.891 409.576 C 341.087 409.576 341.372 409.339 341.746 408.865 C 342.118 408.391 342.438 407.922 342.706 407.46 C 342.973 407.008 343.205 406.585 343.402 406.191 C 343.598 405.796 343.82 405.288 344.067 404.667 C 344.313 404.058 344.503 403.579 344.637 403.229 C 344.777 402.878 344.97 402.332 345.217 401.587 C 345.463 400.842 345.632 400.34 345.723 400.081 C 345.808 399.81 345.972 399.263 346.219 398.439 C 346.465 397.615 346.62 397.107 346.684 396.916 Z M 374.693 365.029 C 375.052 364.804 375.358 364.691 375.611 364.691 C 376.477 364.691 377.051 365.075 377.331 365.841 C 377.486 366.214 377.563 366.54 377.563 366.823 C 377.563 368.978 376.442 371.681 374.198 374.93 C 372.208 377.74 370.375 380.16 368.7 382.191 C 368.152 384.176 367.582 386.625 366.991 389.536 C 367.695 388.137 368.588 386.524 369.671 384.696 C 371.859 381.062 373.385 379.246 374.25 379.246 C 374.687 379.246 374.915 379.596 374.936 380.295 C 374.972 381.018 374.877 381.712 374.651 382.377 C 374.426 383.042 374.215 383.658 374.018 384.222 C 373.09 386.681 372.625 388.876 372.625 390.806 C 372.625 391.437 372.707 391.894 372.868 392.177 C 373.142 392.684 373.537 392.718 374.05 392.278 C 374.564 391.838 375.278 390.953 376.192 389.621 C 377.107 388.301 377.848 387.009 378.418 385.745 C 378.517 385.588 378.612 385.547 378.703 385.627 C 378.787 385.706 378.83 385.784 378.83 385.864 C 378.83 385.943 378.813 386.028 378.777 386.118 C 378.481 386.976 377.951 388.059 377.184 389.367 C 376.41 390.675 375.788 391.613 375.316 392.177 C 374.409 393.282 373.543 393.835 372.72 393.835 C 371.968 393.835 371.465 393.238 371.211 392.041 C 371.156 391.759 371.127 391.42 371.127 391.026 C 371.127 390.631 371.145 390.213 371.18 389.773 C 371.279 388.441 371.802 386.371 372.752 383.562 C 372.949 382.986 373.047 382.58 373.047 382.343 C 373.047 382.106 372.967 381.988 372.805 381.988 C 372.488 381.988 371.88 382.619 370.979 383.883 C 370.367 384.809 369.464 386.541 368.268 389.079 C 367.08 391.618 366.407 392.967 366.252 393.124 C 365.542 393.7 365.102 393.988 364.933 393.988 C 364.765 393.988 364.67 393.949 364.648 393.869 C 364.635 393.79 364.645 393.688 364.68 393.565 C 364.722 393.429 364.881 392.73 365.155 391.466 C 366.083 387.268 366.713 384.493 367.044 383.139 C 366.397 384.459 365.592 385.96 364.627 387.641 C 364.466 387.89 364.385 387.832 364.385 387.472 C 364.385 387.111 364.473 386.739 364.648 386.354 C 364.832 385.97 365.201 385.237 365.756 384.154 C 366.32 383.059 366.721 382.247 366.959 381.717 C 366.784 381.56 366.689 381.333 366.674 381.04 C 366.668 380.757 366.727 380.561 366.854 380.448 C 366.98 380.346 367.191 380.385 367.487 380.566 C 367.684 380.126 367.864 379.64 368.025 379.111 C 370.367 371.02 372.591 366.327 374.693 365.029 Z M 376.35 368.583 C 376.611 367.827 376.74 367.19 376.74 366.671 C 376.74 366.141 376.597 365.875 376.308 365.875 C 376.02 365.875 375.64 366.163 375.168 366.738 C 373.002 369.391 371.043 373.83 369.291 380.058 C 370.572 378.726 371.912 376.956 373.311 374.744 C 374.711 372.532 375.724 370.479 376.35 368.583 Z M 392.617 379.534 L 392.997 379.483 C 394.516 379.258 395.438 379.144 395.761 379.144 C 396.085 379.144 396.247 379.224 396.247 379.381 C 396.247 379.573 396.015 379.771 395.55 379.974 C 395.086 380.189 393.96 380.453 392.174 380.769 C 392.076 381.052 391.956 381.379 391.815 381.751 C 391.52 382.518 391.361 382.981 391.34 383.139 C 390.222 386.739 389.631 389.029 389.568 390.01 C 389.547 390.293 389.536 390.653 389.536 391.093 C 389.536 391.534 389.617 391.894 389.779 392.177 C 390.053 392.684 390.447 392.718 390.961 392.278 C 391.474 391.838 392.188 390.953 393.102 389.621 C 394.017 388.301 394.759 387.009 395.329 385.745 C 395.406 385.588 395.505 385.554 395.624 385.644 C 395.92 385.869 395.41 387.116 394.094 389.384 C 392.828 391.562 391.773 392.904 390.929 393.412 C 390.436 393.695 390.021 393.835 389.684 393.835 C 388.896 393.835 388.375 393.238 388.122 392.041 C 388.08 391.816 388.059 391.545 388.059 391.229 C 388.059 390.124 388.375 388.453 389.009 386.219 C 388.91 386.558 388.526 387.348 387.858 388.589 C 387.682 388.905 387.545 388.905 387.447 388.589 C 387.426 388.521 387.415 388.431 387.415 388.318 C 387.415 388.204 387.454 388.069 387.531 387.912 C 388.495 385.994 389.254 384.369 389.81 383.037 C 389.81 383.003 390.025 382.338 390.454 381.04 C 390.257 381.108 390.056 381.142 389.853 381.142 C 389.642 381.142 389.487 381.04 389.388 380.837 C 389.29 380.634 389.283 380.385 389.367 380.092 C 389.501 379.596 390.021 379.314 390.929 379.246 C 390.95 379.178 390.989 379.144 391.045 379.144 L 392.522 374.744 C 392.599 374.495 392.688 374.236 392.786 373.965 C 392.884 373.695 392.958 373.486 393.008 373.339 C 393.057 373.204 393.113 373.057 393.176 372.899 C 393.232 372.742 393.282 372.628 393.324 372.561 C 393.359 372.505 393.398 372.442 393.44 372.374 C 393.517 372.183 393.749 372.087 394.137 372.087 C 394.516 372.087 394.777 372.261 394.917 372.611 C 394.973 372.735 395.002 372.95 395.002 373.255 C 395.002 373.547 394.935 373.881 394.801 374.253 C 394.661 374.614 394.513 374.874 394.358 375.032 C 394.197 375.189 394.087 375.365 394.031 375.556 L 392.617 379.534 Z M 405.476 393.226 C 405.223 393.7 405.17 394.077 405.318 394.36 C 405.466 394.643 405.631 394.783 405.814 394.783 C 406.004 394.783 406.198 394.737 406.394 394.648 C 407.238 394.242 408.061 393.429 408.863 392.211 C 409.659 390.992 410.055 389.751 410.055 388.487 C 410.055 387.788 409.574 387.031 408.61 386.219 C 408.153 385.835 407.897 385.61 407.84 385.542 C 407.306 384.978 406.971 384.413 406.837 383.85 C 406.563 384.606 406.43 383.432 406.69 382.225 C 406.824 380.487 407.612 378.924 409.053 377.537 C 410.488 376.149 411.796 375.455 412.978 375.455 C 413.732 375.455 414.259 375.67 414.561 376.098 C 414.864 376.526 415.015 376.944 415.015 377.35 C 415.015 377.757 414.941 378.231 414.793 378.772 C 414.645 379.314 414.347 379.821 413.896 380.295 C 413.777 380.419 413.679 380.385 413.601 380.194 C 413.558 380.003 413.643 379.742 413.854 379.415 C 414.059 379.077 414.192 378.625 414.255 378.061 C 414.312 377.498 414.154 377.147 413.78 377.012 C 413.717 377.012 413.658 377.012 413.601 377.012 C 412.835 377.012 411.874 377.474 410.72 378.4 C 409.567 379.314 408.667 380.498 408.019 381.954 C 407.759 382.484 407.629 383.025 407.629 383.579 C 407.629 384.132 407.868 384.628 408.346 385.068 C 408.543 385.259 408.878 385.564 409.348 385.982 C 409.82 386.388 410.155 386.688 410.351 386.879 C 410.548 387.07 410.783 387.37 411.058 387.776 C 411.332 388.182 411.48 388.56 411.501 388.91 C 411.6 389.858 411.326 390.902 410.678 392.041 C 409.749 393.688 408.371 394.839 406.542 395.494 C 406.127 395.651 405.708 395.731 405.286 395.731 C 404.864 395.731 404.573 395.482 404.41 394.986 C 404.355 394.851 404.326 394.653 404.326 394.394 C 404.326 394.123 404.484 393.688 404.801 393.091 C 405.096 392.617 405.568 392.155 406.215 391.703 C 406.272 391.681 406.32 391.698 406.362 391.754 C 406.405 391.821 406.415 391.901 406.394 391.991 C 406.373 392.092 406.267 392.205 406.078 392.329 C 405.895 392.453 405.695 392.752 405.476 393.226 Z" style="text-transform: lowercase; white-space: pre; paint-order: stroke;"/>
</svg>